<?xml version="1.0" encoding="utf-8"?>
<!-- Generator: Adobe Illustrator 21.0.2, SVG Export Plug-In . SVG Version: 6.00 Build 0)  -->
<svg version="1.1" id="Layer_1" xmlns="http://www.w3.org/2000/svg" xmlns:xlink="http://www.w3.org/1999/xlink" x="0px" y="0px"
	 viewBox="0 0 684 261" style="enable-background:new 0 0 684 261;" xml:space="preserve">
<style type="text/css">
	.st0{opacity:0.85;}
	.st1{fill:#FAF1EF;}
	.st2{fill:#FDFAFA;}
	.st3{fill:#F7E9E6;}
	.st4{fill:#EED2CD;}
	.st5{fill:#ECCAC4;}
	.st6{fill:#F4E0DD;}
	.st7{fill:#F1DAD5;}
	.st8{fill:#E9C3BC;}
	.st9{fill:#333333;}
	.st10{font-family:'MagnoliaSky';}
	.st11{font-size:52.9976px;}
</style>
<g>
	<g>
		<g>
			<g class="st0">
				<g class="st0">
					<g>
						<path class="st1" d="M105.2,67.5c-3.6-0.7-7.1-1.3-11.7-2.2c-7.6-2.8-15.3-5.5-22.9-8.3c-5.9-2-4.3-1.1-4.6-0.9
							c5.2,2.4,17.9,6.7,26.5,9.8c6.3,2.6,11.6,4.9,18,7.5c1.5,1.8-47.3,6.5-45.8,8.3c-1.8,0.2-4.6,0-7.4-0.2c-3-1-6-2-8.9-2.9
							c-7.7-2.8-15.3-5.5-23-8.3C41,73.8,5.1,60.5,1.5,58c23.7,6.1,28.6-13.7,46.7-9.7c4.4,1,7.9,1.7,11.4,2.4
							c13.8,4.6,28.5,9.6,42.2,14.3C103.2,65.9,103.8,66.5,105.2,67.5z"/>
					</g>
					<g>
						<path class="st2" d="M92.5,65.8C83.9,62.7,71.2,58.3,66,56c0.3-0.2-1.3-1,4.6,0.9c7.6,2.8,15.3,5.5,22.9,8.3
							C93.2,65.4,92.8,65.6,92.5,65.8z"/>
					</g>
					<g>
						<path class="st1" d="M460.1,249.7c11.8,5.7-22.5-6.7-41.3-14.7c1,0.3,3,0.9,4,1.2C435.3,240.7,447.7,245.2,460.1,249.7z"/>
					</g>
					<g>
						<path class="st2" d="M422.9,236.2c16.8,6.5,38.4,13.7,31.7,12.2C444.1,244.6,432.5,240.5,422.9,236.2z"/>
					</g>
					<g>
						<path class="st3" d="M635.9,175.1c2,1.6,4,3.1,5.9,4.7c11.4,5.1,22.9,10.1,34.3,15.2c-7.8-2.6-15.8-5.2-23.7-7.8
							c-23.4-8.9-28.4-9.6-51.7-17.7c2.1,1.5,4.3,2.9,7.3,4.7c-6.7-2.4-12.4-4.5-19.1-6.9c-5.5-3.1-3.8-3.2,2.7-1.5
							c-6.7-3.3-10.7-5.5,2.2-1.2c-2.9-1.9-6.7-4.2-10.4-6.5c0.2-0.1,0.3-0.2,0.5-0.3c10.7,3.6,21.6,7.3,33.3,11.3
							C623.2,170.8,629.1,172.8,635.9,175.1z"/>
					</g>
					<g>
						<path class="st1" d="M676.1,195c0.6,0.5,2.1,1.5,3.7,2.3c-5-0.7-9.2-1-17.5-3.4c-12.3,0.7-51.5-8.1-45-0.2
							c-11.5-1.4-24.1-3.2-50.7-9.4c-2.1-1.5-4.2-3-6.2-4.5c7,0.5,16.7,1.1-1.8-7.9c6.7-1.1,39.1,8.9,13.9-3.5
							c0.3-0.2,0.7-0.4,1.1-0.6c20.5,6.2,37.5,11.5,26.2,6.4c-6.7-2.4-12.4-4.5-18.1-6.6c0.6-0.3,1-0.6,1.6-0.9c1,0.3,2.9,1,3.8,1.4
							c0.5-0.3,1.1-0.6,1.6-0.9c0,0,0.1-0.1,0.2-0.1c6.7,2.4,12.4,4.5,19.1,6.9c-3.1-1.8-5.2-3.2-7.3-4.7
							c23.3,8.1,28.3,8.8,51.7,17.7C660.3,189.7,668.3,192.3,676.1,195z"/>
					</g>
					<g>
						<path class="st3" d="M599.8,174.4c11.3,5.1-5.7-0.3-26.2-6.4c2.1-0.3,5-0.2,8-0.1C587.4,169.9,593.2,172,599.8,174.4z"/>
					</g>
					<g>
						<path class="st3" d="M572.6,168.5c25.1,12.3-7.3,2.4-13.9,3.5c18.5,9.1,8.8,8.4,1.8,7.9c2,1.5,4.1,3,6.2,4.5
							c-0.2,0.1-0.4,0.2-0.6,0.3c-7.8-2.7-15.6-5.3-23.5-8c17.1,7.2,0.4,2.5,11.2,7c-4.9-0.8-8.9-1.2-12.8-1.6
							c-7.4,1.6-40.7-7.9-34-2c-20.2-5.4-7.5,2.5-26.2-2c-0.6,0.3-1.2,0.7-1.8,1.1c2.6,1.2,5.2,2.4,7.7,3.6c-4,1.4-9,2.5-13,3.8
							c-6.8-2.4-12.6-4.4-19.4-6.8c-7.3-2.9-14.7-5.8-22-8.8c2.4,0.4-1-1.2-2.5-2.2c0.6-0.4,1.2-0.7,1.8-1.1c1-0.6,2-1.1,3-1.7
							c4.2,0.3,8.3,0.6,12.4,1c-7.2-3-14.6-6-21.8-8.9c0.4-0.3,0.8-0.5,1.4-0.8c17.7,5.9,7.5,1,17,3.6c-1.4-1-2.8-2-3.2-2.6
							c3.5,0.7,7,1.3,10.5,2c15.9,4.3,37.1,11.8,30.7,8.3c5.5,1.3-6.6-3.3-7-4c12.3,2.7-4.4-2.9-7.7-4.5c0.7-0.4,1.4-0.8,2.2-1.3
							c10.8,2.7,11.5,2.3,12.2,1.9c0.6-0.3,1.2-0.7,1.8-1.1c4,1.3,8.8,3,13.6,4.7c-1.5-0.9-2.1-1.4-3.6-2.3c3.2-0.1,5.4-0.4,8.5-0.4
							c7.8,2.6,15.7,5.3,23.5,8c7.2,1.2-12.2-5.5-16.5-7.5c0.3-0.2,0.7-0.4,1-0.6c0.1,0,0.2-0.1,0.3-0.2c3.5,0.7,7,1.4,10.4,2.1
							c1.3-0.8,2.7-1.5,4-2.3c5.2,1.5,10.4,2.9,15.7,4.4c0.5-0.3,1.1-0.6,1.6-0.9c3.8,0.5,7.5,1.1,11.3,1.6c0.9-0.5,1.8-1,2.7-1.5
							c4.5,1,8.2,1.6,11.8,2.2C568.5,167.4,570.5,168,572.6,168.5z"/>
					</g>
					<g>
						<path class="st3" d="M205.6,40.4c0.9,0.4,2.7,1.1,3.5,1.5c9,4.7,3.1,3.6,10.6,7.3c-5.1-1.5-10.3-3-15.4-4.6
							c-1.5,0,1,1.2,3.4,2.5c1.6,0.9,2.3,1.4,3.9,2.2c-3.4-0.7-6.8-1.5-11.1-2.6c-13.2-4.9-26.4-9.9-40.6-15.2
							c-0.1-0.8-1.2-2-2.4-3.1c2.8,0.2,5.5,0.5,7.2,0.3c0.5-0.3-7.9-3.5-12.3-5.5c-4.7-2.7,9.2,1.9,33.9,10c1.9,0.7,3.8,1.4,4.8,1.7
							C196,37,200.8,38.7,205.6,40.4z"/>
					</g>
					<g>
						<path class="st4" d="M356.6,82.5c5.5,2.2,10.9,4.5,17.3,7c14.7,6.8,22.6,10.3,24.2,12c-10.9-2.7-12.5-2.7-7.5-0.2
							c2.8,1,5.7,2.1,8.6,3.1c-0.6,0.4-1.2,0.7-1.9,1.1c-3-1-5.9-1.9-8.9-3c-4.8-0.8-8.6-1.3-12.5-1.8c-1.4-0.1-3.7-0.5-6.1-1
							c1.7,0.8,3.5,1.6,4.2,2c-0.2,0.1-0.3,0.2-0.5,0.3c1.2,1.1,1.4,1.9,2.6,3c-38.2-12.9-3.4,0.1-6.9-0.5c6.1,3.6-5.9,0.7-8.8,0.6
							c-1.5,0-4.1-0.3-5.7-0.3c-0.6,0.4-1.3,0.7-1.9,1.1c-28.5-10.4-14.1-3.5-30.1-8.6c-4.1-1.2-7.2-2.1-10.4-3
							c-0.5,0.3-1.1,0.6-1.6,0.9c4.3,2,18.5,7.3,12.9,5.9c-8.8-3-15.7-5.2-23.7-7.8c-0.5,0.3-1.1,0.6-6.4-0.8
							c-0.1,0.1-0.3,0.2-0.5,0.3c4.5,1.9,8,3.4,12.5,5.3c-6.2-1.8-13.5-3.9-19.8-5.6c0.8,0.4,2.6,1.2,4.3,2c-3.1,0-6.2,0-8.3,0.3
							c-0.2,0.1-0.5,0.3-0.8,0.4c-7.6-2.8-15.3-5.5-22.9-8.3c-12.1-3.8-17.7-5-15.8-3.5c-6.7-2.4-12.4-4.5-19.1-6.9
							c-0.6-0.5-2.1-1.4-2.7-2c4.3,0.2-11.7-5.8-11.9-6.6c0.1-0.1,0.2-0.1,0.3-0.2c5.1,1.5,10.3,3,15.4,4.6
							c7.9,1.7-10.6-5.5-16.4-8.4c0.2-0.1,0.3-0.2,0.5-0.3c5.6,1.3,11.2,2.5,16.7,3.8c0.3-0.2,0.7-0.4,1-0.6
							c15.4,3.7,4.6-0.8-1.8-3.4c1.3,0.2,3.5,0.7,5.6,1.3c6.1,1.9,13.1,4.1,19.3,5.9c9.6,2.5-15.9-7-16-7.8
							c3.4,0.7,6.8,1.5,10.2,2.2c7.2,2.1,13.5,3.9,20.7,6c1.5,0.1-14.6-5.9-8.2-4.2c6.1,1.9,13.1,4.1,19.2,6
							c7,1.4-18.8-7.1-21.6-9.1c0.4-0.2,0.7-0.4,1.1-0.6c-1-0.4-2.9-1-4.8-1.7c0.4-0.2,0.7-0.4,1.1-0.6
							c-10.4-3.9-20.9-7.7-31.2-11.6c-7.5-3.7-1.6-2.7-10.6-7.3c12.4,4.5,24.8,9,37.3,13.5c3,1,5.9,2,8.9,2.9
							c4.1,1.2,7.3,2.1,10.3,3c24.5,9.1,10.2,4.9,25.8,11.1c7.5,2.8,15.1,5.7,22.7,8.5c5.9,2,12.7,4.3,18.7,6.2
							c1.5,0.1,3.9,0.4,6.3,0.8c1.3-0.7,2.5-1.4,3.8-2.2c3.4,0.8-4-2.1-8.5-4.1c-25-8.9-27.9-8.1-56.1-18.8c13.5,3,18.5,3.7,18,2.2
							c5.9,1.1,11.7,2.2,16.6,3c0.3-0.2,0.6-0.3,0.9-0.5c7.8,2.6,15.8,5.2,23.7,7.8C344.1,78,349.9,80.1,356.6,82.5z"/>
					</g>
					<g>
						<path class="st5" d="M335.5,102.6c1.3,1,1.6,1.8,2.9,2.8c-0.3,0.2-0.7,0.4-1.1,0.6c-2.1-0.6-3.2-0.9-5.3-1.4
							c-3.6-0.7-7-1.3-10.5-2c-2.4-0.4,1.6,1.7-6.4-0.8c-4.6-1-8.1-1.6-11.7-2.3c1.5,1,2,1.6,3.4,2.5c9.8,3.4,18.5,6.4,28.2,9.8
							c2.8,1,5.7,2.1,8.6,3.1c7.9,2.6,15.6,5.3,23.5,8c3.6,1.5,6.4,2.6,9,3.8c-0.3,0.2-0.7,0.4-1.1,0.6c-0.4,0.3-0.9,0.5-1.4,0.8
							c-4.9-1.6-9.9-3.3-13.9-4.5c0.1,0.8,1.2,2,1.4,2.8c-1-0.3-3-0.9-4.1-1.3c-2.1-0.6-4.2-1.2-5.3-1.4c11.8,5.7,11.1,6.1,10.4,6.5
							c-21.4-7.4-20.3-6.2-15-3.9c0.4,0.6,1.8,1.6,3.2,2.6c5.8,2,11.7,4.1,18.4,6.4c5.7,2.1,12.2,4.6,17.9,6.7
							c0.3,0.7,1.5,1.8,2.9,2.8c9.7,4.2,3.4,2.5,11.4,5.9c-3.2-0.8-6.5-1.7-9.6-2.5c2.5,1.2,5,2.5,7.5,3.7c-3-0.9-6.1-1.9-9.2-2.8
							c-0.5,0.3-1.1,0.6-1.6,0.9c2.4,1.3,5,2.5,7.5,3.7c-7.1-1.3-3,0.8-15.8-3.5c-0.4,0.3-0.9,0.5-1.4,0.8
							c8.4,3.2,17.8,6.8,27.2,10.3c-0.3,0.2-0.6,0.3-0.8,0.5c-11.5-4.2-21.9-7.9-32.4-11.7c-0.3,0.2-0.5,0.3-0.8,0.4
							c16.8,6.4,11.1,5.3,11.2,6.1c6.6,2.4,12.2,4.6,18.8,7c0.4,0.7,1.8,1.7,2.2,2.3c-1.5,0-3.9-0.4-5.5-0.5
							c0.8,0.4,2.7,1.1,3.5,1.5c-1.1,0.6-2.3,1.3-3.5,2c4.5,1.9,9,3.8,13.5,5.7c-4-1.3-7.2-2.1-10.3-3c-0.5,0.3-0.9,0.5-1.4,0.8
							c-1.4-0.1-3.8-0.5-6.1-1c-1.7,0.1-4.3-0.2-6-0.2c-6.7-2.4-12.4-4.5-19.1-6.9c-10.9-4.5-9.9-5,2.1-1.2
							c-5.1-2.4-11.1-5.2-16.2-7.7c-5.2-1.5-9.3-2.7-14.5-4.2c11.6,6.7-32-8.5-38.7-8.2c-13.9-5.4-2.3-2.2-11.4-5.9
							c1.3-0.8,2.7-1.5,4-2.3c-1.7-0.8-3.3-1.7-4-2.2c-13.4-4.8-27.7-10-41.1-14.9c-2.4-0.4-4.9-0.8-6.4-0.8
							c9.2,4.6,6.8,4.1-6.9-0.5c5.1,2.4,11.1,5.2,16.2,7.7c-8.2-2.4-18.4-6.4-27.5-9.2c-0.2,0.1-0.4,0.2-0.6,0.3
							c-9.2-2.8-66.8-1.9-75.1-4.4c-4.4-1.1-7.8-1.8-11.2-2.5c-3.4-0.7-6.8-1.5-11.2-2.5c-6.5-0.7,26.3,12.6-12.9-0.6
							c-6.3-2.6-11.7-4.9-17.1-7.2c6.6,1.6-8.4-4.1-13-6c-6.9-3.2-24.3-9.3-26.6-10.7c2.8,0.2,5.6,0.3,7.4,0.2
							c6.1,1.9,13.2,4.1,19.3,6c23.8,8.7,71.8,3.5,80.4,5.8c11.9,3-17.4-6.9-21.3-9.2c-2.4-1.3-4.7-2.7-7-4c0.2-0.1,0.5-0.3,0.8-0.4
							c1.6,0,4.1,0.3,5.7,0.3c22.4,7.7,33.3,11.3,29.3,9.1c3.4,0.7,6.8,1.4,11.2,2.5c7.3,2.9,14.7,5.8,22.1,8.7
							c-0.3,0.2-0.5,0.3-0.8,0.5c18.3,7.4,29.2,10.9,40.8,15c-1.4-1-1.8-1.6-3.2-2.6c1-0.6,2-1.1,3-1.7c2.1,0.6,3.2,0.8,5.3,1.4
							c5.2,1.6,10.3,3.1,14.5,4.2c-2.1-1.5-9.3-4.5-21.6-9.1c4.4,1,7.9,1.7,11.4,2.4c-9.2-3.7-13.4-5.7-11.8-5.7
							c4.2,1.2,9.3,2.7,14.5,4.2c-4.1-2.1-8.3-4.2-11.5-5.9c3.3,0.8,6.6,1.6,9.9,2.3c6,1.1-20.2-8.1-21.3-9.2
							c2.5,0.3,4.1,0.3,6.6,0.6c19.8,7.4,39.6,14.9,58.4,21.9c-11.3-5.1-5.7-3.9,12.5,1.8c0.3-0.2,0.7-0.4,1-0.6
							c-1.7-0.8-2.5-1.2-4.2-2c3.4,0.8,6.8,1.5,11.2,2.5c-6.7-2.4-12.4-4.5-18.1-6.6c-3.4-1.6-5.9-2.9-8.2-4.2
							c-8.6-3.1-2-1.5-3.2-2.6c-5.7-2.1-12.4-4.5-18.1-6.6c-2-1.6-3.9-3.1-6.8-5c5.3,1.4,10.6,2.8,15.9,4.3
							c-4.2-2.1-8.5-4.1-12.7-6.1c4.7,0.9,8.5,1.4,12.2,1.9c0.3-0.2,0.5-0.3,0.8-0.4c2.1-0.3,5.2-0.3,8.3-0.3
							c-1.7-0.8-3.5-1.6-4.3-2c6.3,1.8,13.6,3.9,19.8,5.6c-4.5-1.9-8-3.4-12.5-5.3c0.2-0.1,0.4-0.2,0.5-0.3c5.4,1.4,5.9,1.1,6.4,0.8
							c7.9,2.6,14.9,4.9,23.7,7.8c-12.7-6.1-12.1-6.5-11.3-6.9c3.2,0.9,6.3,1.8,10.4,3C327.3,99.3,330.9,100.7,335.5,102.6z"/>
					</g>
					<g>
						<path class="st3" d="M195.3,54.3c14.6,5.9,30.6,12,30.8,12.7c-0.3,0.2-0.7,0.4-1,0.6c-9.5-3.5-18.2-6.6-27.7-10
							c-2.2-1.5-4.3-2.9-7.4-4.7C192.1,53.5,194.2,54.1,195.3,54.3z"/>
					</g>
					<g>
						<path class="st6" d="M199.1,65.5c-0.4,0.3-0.9,0.5-1.3,0.8c2,1.6,3.9,3.1,5.9,4.6c-0.6,0.4-1.3,0.7-1.9,1.1
							c-0.7,0.3-1.2,0.7-1.9,1.1c-13.7-4.7-28.3-9.7-41.9-14.4c5.2,2.4,11.3,5.1,16.5,7.5c7.4,2.9,14.8,5.8,22.1,8.7
							c-0.5,0.3-1.1,0.6-1.6,0.9c-1-0.3-3-0.9-5.1-1.6c5.6,3.1,10.1,5.8,15.6,8.9c-3.9-1.3-6.8-2.3-9.9-3.3
							c-5.5-1.3-10.9-2.7-15.5-3.6c7.1,3.1,13.3,5.8,21.3,9.2c-12.1-3.8-23.3-7.2-34.4-10.7c-9-3.8-17-7.2-26.1-11
							c3.5,0.7,7,1.3,11.5,2.4c-3-1.9-4.9-3.5-6.9-5c0.4-0.3,0.9-0.5,1.3-0.8c-5.4-2.2-11.9-4.8-17.4-7c0.6-0.3,1.1-0.6,6.4,0.8
							c1.5,0,3.9,0.4,6.4,0.8c1.7-0.1,4.2,0.2,6,0.2c2.8,0.2,5.6,0.4,7.4,0.2c1-1.4,0.9-3.2,0.9-5c2,0.7,4,1.3,5.1,1.6
							C174.3,56.5,186.7,61,199.1,65.5z"/>
					</g>
					<g>
						<path class="st3" d="M220.5,74.7c0.6,0.5,2.1,1.4,2.7,2c-6.2-1.8-13.3-4-19.5-5.8c-2-1.6-3.9-3.1-5.9-4.6
							C209.3,70.4,211.7,71.7,220.5,74.7z"/>
					</g>
					<g>
						<path class="st3" d="M268.8,93.5c4.2,2.1,8.5,4.1,12.7,6.1c-5.3-1.4-10.6-2.9-15.9-4.3c2.9,1.9,4.9,3.4,6.8,5
							c-9-2-17.9-4-27-6c-2.7-1.1-5.5-2.2-9.3-3.6c-0.4-0.7-1.6-1.8-1.9-2.5c-3-1.8-5.1-3.3-7.1-4.8c6.5,1.6,14,3.6,20.5,5.2
							c2.8,0.2,4.7,0,7.5,0.2C263,91.4,265.9,92.4,268.8,93.5z"/>
					</g>
					<g>
						<path class="st3" d="M217.5,79.9c-3.7-0.6-7.4-1.2-11-1.7c-4-1.3-6.9-2.3-9.9-3.3c-7.3-2.9-14.7-5.8-22.1-8.7
							c-5.2-2.4-11.3-5.1-16.5-7.5c13.6,4.7,28.2,9.7,41.9,14.4C205.5,75.3,212,77.8,217.5,79.9z"/>
					</g>
					<g>
						<path class="st3" d="M245.8,103c3.2,1.7,7.4,3.8,11.5,5.9c-5.2-1.5-10.3-3-14.5-4.2c-1.6,0,2.6,2.1,11.8,5.7
							c-3.5-0.7-7-1.3-11.4-2.4c12.2,4.6,19.4,7.6,21.6,9.1c-4.1-1.2-9.3-2.7-14.5-4.2c-2.1-0.5-3.2-0.8-5.3-1.4
							c-4.8-1.7-8.6-3.1-13.4-4.8c-33.7-13.7-20.9-11.3-8.1-8.8c-7-3.1-14-6.2-21-9.3c1-0.6,2-1.1,3-1.7c1.9,0.7,3.8,1.4,4.8,1.7
							C222,93.4,234,98.2,245.8,103z"/>
					</g>
					<g>
						<path class="st3" d="M465.1,187.2c2.9,1,5.7,2.1,8.6,3.1c4.3,2,8.7,4,13,6c-0.3,0.2-0.7,0.4-1.1,0.6c-1.4,0,16.2,6,7,4
							c-0.2,0.1-0.3,0.2-0.5,0.3c-1.6,0-4.1-0.3-5.7-0.3c-5.1-1.6-10.1-3.1-15.2-4.7c-0.5,0.3-1.1,0.6-1.6,0.9
							c1.8,1.7,3.5,3.3,6.3,5.3c-4.7-0.9-8.5-1.4-12.2-1.9c2.1,1.5-46,5.8-42.9,7.6c0.7,0.5,2.3,1.3,3.9,2.2
							c-5.3-0.5-9.7-0.7-14.1-0.9c-9.6-3.5-18.2-6.6-27.7-10c0-0.9-0.9-2.2-1.9-3.4c2.6,0.3,5.3,0.5,7,0.5
							c-4.1-2.1,42.9-6.7,38.8-8.8c5.1,1.6,9.2,2.8,14.2,4.4c1.5-0.9,3-1.7,4.5-2.6c3.3,0.8,6.5,1.7,10.7,2.8
							c-3.7-1.5-6.3-2.6-9-3.7c0.4-0.2,0.7-0.4,1.1-0.6c0.9-0.5,1.8-1.1,2.7-1.5c0.3-1.1-0.4-2.5-0.9-3.9c0.1-0.1,0.3-0.2,0.5-0.3
							C455.6,183.7,460.3,185.4,465.1,187.2z"/>
					</g>
					<g>
						<path class="st5" d="M358.4,192c7.6,2.8,15.3,5.5,22.9,8.3c2.4,1.3,4.8,2.6,8.2,4.2c-0.9,0.5-1.8,1-2.7,1.5
							c-5.4-1.4-10.9-2.7-16.2-4.1c4.1,2.1,24.5,9.2,17.8,7.7c-5.7-1.3-25.9-9.3-24-7.7c-5.6-1.3,5.6,3,6.6,4.2
							c5.8,2.1,12.4,4.5,18.2,6.6c3.2,1.7,5.5,3.1,7.7,4.5c-0.3,0.2-0.6,0.3-0.8,0.5c2.2,1.4,4.3,2.9,7.4,4.7c0.9,0.3,2.9,1,3.8,1.4
							c4.4,1.9,8.8,3.9,13.3,5.8c-0.8,0.5-2.7,0.7,2.4,3.1c-5-1.6-9.9-3.2-14.9-4.9c-17.8-6.8-35.5-13.5-53.4-20.3
							c-6.6-2.5-12.2-4.6-18.8-7.1c-2.7-1.1-5.6-2.2-8.3-3.3c-1.6-0.8-3.3-1.7-4-2.2c3.4,0.7,6.8,1.5,11.2,2.5
							c5.9,2,11.8,4,18.7,6.2c-3.2-1.7-5.4-3.1-7.7-4.5c5.5,1.3,11,2.6,16.5,3.9c-22.7-8.4-32.2-11.9-41.8-15.3
							c-2.6-1.2-5.3-2.3-8.1-3.4c7.1,1.3,5.7,0.3-16.2-7.7c-10.4-4.7-18.6-8.1-16.9-8.1c2.9-0.7,28.9,8.5,30.6,8.3
							c5.3,1.5,10.5,3,15.7,4.4c0.8-0.5,1.6-0.9,6.2,0C341,185,350.1,188.7,358.4,192z"/>
					</g>
					<g>
						<path class="st3" d="M407.6,211.1c21.5,8.3,16.7,7.4,11,6.2c17.8,6.8,11.2,5.2,7.9,4.4c18.7,8.1,11,7.1,5.8,5.6
							c-11.3-4.2-21.7-8.2-32-12.1c0.5-0.2,0.9-0.5,1.3-0.8c0.6-0.4,1.3-0.7,1.9-1.1c-1.6-0.9-2.1-1.5-3.7-2.3
							c-4.7-1.8-8.4-3.2-13.1-5c0.9-0.5,1.8-1,2.7-1.5C398.1,207.6,402.9,209.3,407.6,211.1z"/>
					</g>
					<g>
						<path class="st3" d="M43.2,85.9c-4.2-2-20.1-7.3-3.1-2.7C40.5,83.9,41.8,84.9,43.2,85.9z"/>
					</g>
					<g>
						<path class="st3" d="M434.2,229.7c6.4,3.5,13.1,6.7,34.8,14.9c0.6,0.5,2.1,1.5,3.7,2.3c-0.5,0.3-1.1,0.6-1.6,0.9
							c2.9,1,5.7,2.1,8.6,3.1c-2.8-0.2,1,2.1,12.2,6.4c4.8,2.6-11-2.7-16.5-4c-13.5-4.7-28-9.8-41.6-14.5c-2-1.5-4.1-3-7.1-4.9
							c-0.9-0.3-2.8-1-3.8-1.4c-5-2.5-3.2-2.6-2.4-3.1c-4.4-1.9-8.8-3.9-13.3-5.8c8.3,2.4,16.6,4.8,24.8,7.2c2.9,0.1-19-7-21.8-8.9
							C418.2,224.6,426.2,227.2,434.2,229.7z"/>
					</g>
					<g>
						<path class="st1" d="M364.1,81.8c1.4,1,2.7,2,3.1,2.7c4.8,1.7,9.5,3.4,14.3,5.2c13.9,5.4,7.4,2,32.4,10.9
							c-0.4,0.3-0.9,0.5-1.3,0.8c-5.1-1.6-9.2-2.8-19-6.1c-6.2-1.8-13.4-3.9-19.7-5.7c-6.5-2.5-11.9-4.8-17.3-7
							c0.7-0.4,1.4-0.8,2.1-1.2c-9.6-3.5-19.1-6.9-27.7-10c0.6-0.3,1.1-0.6,1.6-0.9c-5.2-2.4-8.7-4.8,7,0.5
							c17.6,6,12.5,5.3,25.9,10.1C365,81.2,364.6,81.5,364.1,81.8z"/>
					</g>
					<g>
						<path class="st1" d="M313.8,67.8c-0.3,0.2-0.6,0.3-0.9,0.5c-4.9-0.8-10.7-1.9-16.6-3c0.8,0.4,2.6,1.2,4.5,1.9
							c-4.8-0.8-8.6-1.3-12.5-1.8c1.4,1-16-5.2-9.9-2.3c-6.9-2.3-12.8-4.3-19.7-6.6c-20.5-8.8-14.6-7.7-13.5-9.2
							c5.2,1.5,10.4,2.9,15.7,4.4c-2.5-1.3-8.5-4,1.3-0.8c23.3,9,6.7,1.5,19.5,5.8c8.9,3,18.7,6.2,28.5,9.6
							C311.1,66.6,312.8,67.4,313.8,67.8z"/>
					</g>
					<g>
						<path class="st1" d="M186.5,33.5c-24.8-8.1-38.7-12.7-33.9-10c4.4,2,12.8,5.2,12.3,5.5c0.5-0.3-7.9-3.5-12.3-5.5
							C147.8,20.8,161.7,25.4,186.5,33.5z"/>
					</g>
					<g>
						<path class="st1" d="M191.2,35.2c-1-0.3-2.9-1-4.8-1.7C188.4,34.2,190.3,34.9,191.2,35.2z"/>
					</g>
					<g>
						<path class="st1" d="M160,31.7c14.2,5.3,27.4,10.2,40.6,15.2c-2.1,0.3-5.1,0.2-7.1,0.5c-19.9-6.4-21.8-5.4-8.3,0.3
							c3.6,2.4,11.9,5.7,11.4,5.9c-0.4,0.3-0.9,0.5-1.4,0.8c-1.1-0.2-3.2-0.8-5.3-1.4c-9.2-1.9-18.3-3.8-27.5-5.7
							c-1.9,0.2-4.6,0-6.5,0.2c2,1.6,3.9,3.1,5.9,4.6c-1.1-0.3-3.1-0.9-5.1-1.6c0,1.8,0.1,3.5-0.9,5c-1.8,0.2-4.6,0-7.4-0.2
							c-1.7,0.1-4.3-0.2-6-0.2c-2.5-0.4-4.9-0.8-6.4-0.8c-5.3-1.4-5.8-1.1-6.4-0.8c5.4,2.2,11.9,4.8,17.4,7
							c-0.4,0.3-0.9,0.5-1.3,0.8c1.9,1.5,3.9,3.1,6.9,5c-4.5-1-8-1.7-11.5-2.4c9.1,3.7,17.1,7.2,26.1,11c0.5,0.6,2,1.6,3.4,2.5
							c-0.7,0.4-1.4,0.8-2.1,1.2c-11.2-2.5-12.8-2.5-7.5-0.2c-1.5,0.8-2.9,1.6-4.3,2.5c-10.2-3.1-19.4-5.9-29.5-9
							c-9.8-4.2-14.7-6.8-10.7-6.4c-7.2-3-14.4-6-21.6-9.1c-1.1-1.1,5.6,0.4-11.9-6.6c7.5,2,41,14.9,33.8,11
							c3.3,0.7-7.6-2.8-9.1-3.8c-0.1-0.9-1.1-2.1-1.1-2.9c1.5,0.1,9.4,2.7,14.5,4.2c0.4-0.3,0.8-0.5,1.3-0.8
							c-9.5-3.4-18.1-6.6-27.7-10c-3.4-0.7-6.9-1.4-10.3-2.2c-8.5-3.1-15.1-5.6-22.6-8.5c0.7-0.4,1.1-0.6,1.6-0.9
							c8.1,2.5,15.2,4.7,24.3,7.5c-13.5-6.6,15.5,1.8-18-11.1c15.7,4.4-3.1-3.6-28.7-13.9C51.4,12.7,61.7,6.8,72,0.9
							c9.6,3.4,18.3,6.5,28,9.9c9.3,4.5,25.2,10.5,44.5,17.4c1.5,0.1,3.9,0.4,6.4,0.8c-9.3-3.6-18.6-7.2-26.9-10.5
							c11.2,3.4,22.4,6.8,33.6,10.2C158.8,29.8,159.9,30.9,160,31.7z"/>
					</g>
					<g>
						<path class="st1" d="M553.7,183.8c-10.7-4.6,5.9,0.2-11.2-7c7.9,2.6,15.7,5.3,23.5,8C558.9,183.5,594.6,196.9,553.7,183.8z"/>
					</g>
					<g>
						<path class="st1" d="M509.3,191.3c8.6,4.9-6.6,2.9,1.7,7.9c14.6,5.9-9.6-2.6-6.3-0.8c-3.4-0.8-6.6-1.6-10-2.4
							c-0.1,0.1-0.2,0.1-0.3,0.2c7,3.1,8.2,4.2-7.7,0c-4.3-2-8.7-4-13-6c-2.9-1-5.7-2.1-8.6-3.1c1.7-0.1,4.5,0.1,7.2,0.3
							c0.4-0.3,0.9-0.5,1.4-0.8c4-1.4,9-2.5,13-3.8c-2.6-1.2-5.2-2.4-7.7-3.6c0.6-0.4,1.2-0.7,1.8-1.1c18.8,4.4,6-3.4,26.2,2
							c-6.7-5.9,26.6,3.5,34,2c14.3,11.4-32.3-1.2-18,10.3c-3.4-0.7,12.8,6.1-6.4-0.8C514.7,191.8,512,191.6,509.3,191.3z"/>
					</g>
					<g>
						<path class="st1" d="M485.6,196.8c-1.4,0,16.2,6,7,4C501.8,202.8,484.2,196.8,485.6,196.8z"/>
					</g>
					<g>
						<path class="st1" d="M486.4,200.9c1.6,0,4.1,0.3,5.7,0.3C490.5,201.2,487.9,200.9,486.4,200.9z"/>
					</g>
					<g>
						<path class="st1" d="M424.7,210.2c5.2,5,32.5,16.2,42.6,22c8.5,4.9,6.3,6.2,16.7,11.8c1.8,1.6-5.7-0.3-11.3-1.6
							c-1.2,0.7-2.5,1.4-3.8,2.1c-21.7-8.1-28.4-11.4-34.8-14.9c-0.3-0.7-1.6-1.8-1.9-2.5c5.2,1.5,12.9,2.5-5.8-5.6
							c3.3,0.8,9.9,2.4-7.9-4.4c5.7,1.2,10.5,2-11-6.2c0.1,0,0.2-0.1,0.3-0.1c1.7-0.1,4.3,0.2,6.9,0.5c-1.8-0.8-3.5-1.6-4.2-2
							C415,209.5,419.4,209.7,424.7,210.2z"/>
					</g>
					<g>
						<path class="st1" d="M35.6,76.9c0,0-0.2,0.1-0.3,0.2c-10.5-3.8-21-7.6-31.5-11.4c0.7-0.4,1-0.6,1.4-0.8
							c4.3,1.1,9.5,2.6,14.7,4.1C24.8,71.5,30.7,74.3,35.6,76.9z"/>
					</g>
					<g>
						<path class="st1" d="M472.8,246.9c-2.4-0.4,16.1,5.9,7,4c-2.9-1-5.7-2.1-8.6-3.1C471.6,247.6,472.2,247.3,472.8,246.9z"/>
					</g>
					<g>
						<path class="st6" d="M575.2,150.1c18.1,6.6,41.9,15.2,52.2,20.9c2.6,1.2,5,2.5,8.5,4.1c-6.8-2.3-12.7-4.3-18.6-6.3
							c-11.7-4-22.5-7.6-33.3-11.3c-1.5-1-2-1.6-3.5-2.5C573.3,151.2,574.2,150.7,575.2,150.1z"/>
					</g>
					<g>
						<path class="st6" d="M583.5,157.9c3.7,2.3,7.5,4.6,10.4,6.5c-12.9-4.2-8.9-2-2.2,1.2c1.9,0.7,3.6,1.5,4.6,1.9
							c1.8,0.8,2.6,1.2,4.5,1.9c-3.6-0.6-7.2-1.2-11.7-2.2c-0.1,0-0.2,0.1-0.2,0.1c-26.3-8.2-6-1-5.5-0.5c-0.6,0.3-1.1,0.6-1.6,0.9
							c-3-0.1-6-0.2-8,0.1c-0.3,0.2-0.7,0.4-1.1,0.6c-2.1-0.6-4.1-1.2-5.3-1.4c-20.5-7-16-4.3-11.8-2.2c-0.9,0.5-1.8,1-2.7,1.5
							c-16.6-4.8-13.2-3.1-10.7-1.9c-0.2,0.1-0.4,0.2-0.5,0.3c-0.5,0.3-1.1,0.6-1.6,0.9c-5.2-1.5-10.5-3-15.7-4.4
							c-3.6-1.6-8-3.4-12.5-5.3c1.1-0.6,2.1-1.2,3.2-1.8c0.5-0.3,1.1-0.6,1.6-0.9c3.4,0.7,6.8,1.5,11.2,2.5c7,1.3-5.3-3.2-2.9-2.8
							c-3.5-1.6-6-2.8-8.5-4.1c5.2,1.5,10.5,2.9,15.7,4.4c10,1.4-6.1-6.3,15-0.6c0.6-0.3,1.1-0.6,1.6-0.9c0-0.9-1.1-2.1-2.1-3.3
							c7,2.2,13.1,4.1,20.2,6.3C570.8,155.3,560.7,150.4,583.5,157.9z"/>
					</g>
					<g>
						<path class="st6" d="M254.4,55.3c20.6,7.8,9.1,4.6,11.2,6.1c-3.1-0.9-6.2-1.8-10.3-3c-3-1-5.9-2-8.9-2.9
							c-12.4-4.5-24.8-9-37.3-13.5c-0.8-0.4-2.6-1.1-3.5-1.5C220.9,45,238.1,50.4,254.4,55.3z"/>
					</g>
					<g>
						<path class="st6" d="M254.6,63.2c-0.4,0.2-0.7,0.4-1.1,0.6c-1.2-0.2-3.4-0.7-5.6-1.2c-12.4-4.5-23.9-8.6-36.3-13.1
							c-1.6-0.8-2.3-1.4-3.9-2.2c14.6,5,28.4,9.6,42.1,14.3C251.8,62.2,253.7,62.9,254.6,63.2z"/>
					</g>
					<g>
						<path class="st4" d="M512.9,121.5c2.7,1.1,5.4,2.3,8.1,3.4c-1.5-0.1-3.9-0.4-6.3-0.8c12.4,4.5,25,8.9,37.4,13.3
							c0,0.9,14.3,7,1.9,3.4c3.3,1.7,7.5,3.7,11.7,5.8c-6.1-1.8-13.2-4.1-19.2-6c-1,0.6-2,1.1-3,1.7c6.8,4.1,5,5.2,3.2,6.2
							c1,1.2,2,2.4,2.1,3.3c-0.6,0.3-1.1,0.6-1.6,0.9c-21.2-5.7-5.1,2-15,0.6c-5.2-1.5-10.5-2.9-15.7-4.4
							c-31.6-10.5-17-4.5-15.8-3.5c-2.3-0.5-4.6-1-5.9-1.1c-23.3-7.1-15.4-3.7-2.1,1.2c-0.2,0.1-0.4,0.2-0.6,0.3
							c-0.1,1,0.7,2.3,1.6,3.6c-4-1.3-7.1-2.2-10.1-3.1c-17.8-6.8-19.9-7.3-22.9-8.3c-4.5-1,9.3,4.5,16.8,7.3c10,5,8.1,6.1-0.1,4.5
							c-1.5,0-4.1-0.3-6.6-0.6c-6.5-1.6,9.2,4.5,12.7,6.1c-2.3-0.4-4.7-0.9-6.1-1c-0.1,0.9-20.3-6.2-20.6-5.2
							c-7.5-1.9,12.7,5.2,12.3,5.4c-1.7,0.1-4.3-0.2-6.9-0.5c-3.4-0.7-6.9-1.4-10.2-2.2c3.2,1.8,18.7,7.1,17.1,7.2
							c-0.7,0.4-1.5,0.8-2.2,1.3c-0.6,0.3-1.3,0.7-1.9,1.1c-3.3-0.8-6.5-1.7-10.7-2.8c-3.8-1.4-8.6-3.1-13.3-4.8
							c-12-3,4.1,3,2.6,2.9c-0.1,0.1-0.2,0.1-0.3,0.2c-26.5-8.1-12.1-2.1-3,1.7c0.5,0.6,1.8,1.7,3.2,2.6c-9.5-2.6,0.7,2.3-17-3.6
							c-0.5,0.3-0.9,0.5-1.4,0.8c-3.3-0.8-6.4-1.7-9.7-2.5c-0.7,0.4-1.4,0.8-2.1,1.2c2.3,1.4,4.7,2.7,7,4c-3.4-0.8-6.8-1.5-10.2-2.2
							c2.4,1.3,4.8,2.6,7.2,3.9c-0.6,0.4-1.2,0.7-1.8,1.1c-3.3-0.8-6.5-1.7-9.7-2.5c-9.4-3.5-18.8-7.1-27.2-10.3
							c0.4-0.3,0.9-0.5,1.4-0.8c12.8,4.3,8.7,2.1,15.8,3.5c-2.5-1.3-5-2.5-7.5-3.7c0.5-0.3,1.1-0.6,1.6-0.9c3.1,0.9,6.1,1.8,9.2,2.8
							c-2.5-1.2-5-2.5-7.5-3.7c3.2,0.8,6.4,1.6,9.6,2.5c-8-3.4-1.7-1.7-11.4-5.9c-1.3-1.1-2.6-2.1-2.9-2.8
							c-5.7-2.1-12.2-4.6-17.9-6.7c-6.7-2.4-12.6-4.4-18.4-6.4c-1.4-1-2.8-2-3.2-2.6c-5.3-2.3-6.4-3.5,15,3.9
							c0.7-0.4,1.5-0.8-10.4-6.5c1.1,0.2,3.2,0.8,5.3,1.4c1,0.3,3,0.9,4.1,1.3c-0.1-0.8-1.2-2-1.4-2.8c4,1.3,8.9,2.9,13.9,4.5
							c0.5-0.2,0.9-0.5,1.4-0.8c0.3-0.2,0.7-0.4,1.1-0.6c-2.6-1.2-5.3-2.3-9-3.8c2.1,0.6,4.2,1.2,5.3,1.4c5.9,2,12.8,4.3,18.7,6.3
							c-5.4-2.3-11.7-4.9-17.1-7.2c6.1,1.9,13.2,4.1,19.3,5.9c1.1-0.6,2.1-1.2,3.2-1.8c-2.5-1.2-5-2.5-7.5-3.7
							c1.4,0.1,3.6,0.6,5.9,1.1c0.9,0.3,2.8,1,3.8,1.4c2.4,0.4,4.9,0.8,6.4,0.8c-2.6-1.2-5.2-2.4-7.8-3.6c6.1,1.9,12.2,3.7,19.2,6
							c1.2-0.7,2.5-1.5,3.7-2.2c-7-3.1-12.1-5.5,1.6-0.9c1.7-0.1,4.3,0.2,6.9,0.5c-4.3-2.9,11.9,2.1,7.6-0.8
							c2.4,0.4,4.9,0.8,6.3,0.8c5.1,1.5,13,4.1,10.9,2.7c-6.1-2.7-11.3-5.1-16.5-7.5c6.1,1.9,12.2,3.7,19.2,6
							c0.7-0.4,1.5-0.8,2.2-1.3c-4.3-2-8.7-4-13-6c5,1.6,10.1,3.2,15.1,4.7c1.4,0.1,3.7,0.5,6.1,1c10.4,3.8,9.2,2.7,9.9,2.3
							c-4.1-2.1-7.3-3.8-11.5-5.9c1.6,0,4.1,0.3,6.7,0.7c-4-2.1,7.7,1.8,15,3.9c-5.1-2.4-11.1-5.2-16.2-7.7c1.1,0.3,3.2,0.9,5.3,1.4
							c15.9,4.3-0.3-1.6,2.2-1.3c0.1,0,0.2-0.1,0.3-0.2c5.8,2,11.6,4,18.4,6.4c3.4,0.7,6.8,1.4,10.2,2.2c-35.1-12.9-9.1-4.6-16-7.8
							c42.3,14.2,3-1.7,5.1-2.9c-4.8-1.7-8.6-3.1-13.3-4.8c1.7-0.1,4.5,0.1,7.2,0.3C497.6,116,504.3,118.4,512.9,121.5z"/>
					</g>
					<g>
						<path class="st7" d="M524.9,153c-2.4-0.4,9.9,4.2,2.9,2.8c-4.4-1.1-7.7-1.8-11.2-2.5c-0.5,0.3-1.1,0.6-1.6,0.9
							c-1.1,0.6-2.1,1.2-3.2,1.8c4.5,1.9,9,3.8,12.5,5.3c-1.4,0.8-2.7,1.5-4,2.3c-3.5-0.7-7-1.4-10.4-2.1c-0.1,0.1-0.2,0.1-0.3,0.2
							c-0.3,0.2-0.7,0.4-1,0.6c-8.7-2.2-12-2.9-16.3-4.1c3.8,1.4,6.5,2.5,9.3,3.6c-3.1,0-5.4,0.4-8.5,0.4c-8-2.6-16-5.1-24-7.7
							c0.4-0.2-19.8-7.4-12.3-5.4c0.3-1,20.5,6.1,20.6,5.2c1.4,0.1,3.8,0.5,6.1,1c-3.5-1.6-19.2-7.7-12.7-6.1
							c2.5,0.3,5.1,0.7,6.6,0.6c8.2,1.6,10.1,0.5,0.1-4.5c-7.5-2.9-21.3-8.3-16.8-7.3c3.1,0.9,5.1,1.5,22.9,8.3
							c3.1,1,6.1,1.9,10.1,3.1c-0.8-1.3-1.7-2.6-1.6-3.6c0.2-0.1,0.4-0.2,0.6-0.3c-13.3-4.9-21.2-8.4,2.1-1.2
							c1.3,0.1,3.6,0.6,5.9,1.1c-1.2-1.1-15.8-7,15.8,3.5C518.9,150.2,521.4,151.4,524.9,153z"/>
					</g>
					<g>
						<path class="st6" d="M520.3,163.7c-3.5-0.7-7-1.4-10.4-2.1C513.3,162.3,516.8,163,520.3,163.7z"/>
					</g>
					<g>
						<path class="st6" d="M508.5,162.4c4.3,2,23.7,8.7,16.5,7.5c-7.8-2.7-15.6-5.3-23.5-8c-2.8-1.1-5.5-2.2-9.3-3.6
							C496.5,159.5,499.8,160.2,508.5,162.4z"/>
					</g>
					<g>
						<path class="st6" d="M233.2,63c0.2,0.8,25.7,10.3,16,7.8c-6.1-1.9-13.2-4.1-19.3-5.9c-2.1-0.6-4.3-1.1-5.6-1.3
							c6.4,2.6,17.2,7.2,1.8,3.4c-0.3-0.7-16.2-6.8-30.8-12.7c0.5-0.3,0.9-0.5,1.4-0.8c0.5-0.2-7.8-3.5-11.4-5.9
							c12.7,4.4,24.4,8.4,37.1,12.7C225.6,61.1,228.9,61.9,233.2,63z"/>
					</g>
					<g>
						<path class="st6" d="M493,162.3c1.5,0.9,2.1,1.5,3.6,2.3c-4.9-1.7-9.7-3.3-13.6-4.7c-4.6-1.8-9.4-3.6-14-5.3
							C477,157.2,485,159.8,493,162.3z"/>
					</g>
					<g>
						<path class="st7" d="M197.4,57.6c11.5,5,6,3.7,7.1,4.8c1,0.3,2.9,1,3.8,1.4c-0.2,0.1-0.4,0.2-0.5,0.3c7.3,3,14.5,5.9,21.8,8.9
							c-8.5-2.3,0.6,2.3-21.1-4.9c0.3,0.7,16.2,6.8,11.9,6.6c-8.8-3-11.1-4.4-22.7-8.5c0.4-0.3,0.9-0.5,1.3-0.8
							c-12.4-4.5-24.8-9-37.3-13.5c-1.9-1.5-3.9-3.1-5.9-4.6c1.9-0.2,4.6,0,6.5-0.2c9.2,1.9,18.3,3.8,27.5,5.7
							C193.1,54.7,195.2,56.1,197.4,57.6z"/>
					</g>
					<g>
						<path class="st6" d="M225.1,67.6c-5.5-1.3-11.2-2.5-16.7-3.8c-1-0.3-2.9-1-3.8-1.4c-1.1-1.1,4.4,0.2-7.1-4.8
							C206.9,61,215.5,64.1,225.1,67.6z"/>
					</g>
					<g>
						<path class="st6" d="M466.8,160.4c3.3,1.7,20,7.3,7.7,4.5c0.3,0.7,12.5,5.4,7,4c6.4,3.5-14.8-4-30.7-8.3
							c-2.5-1.2-5-2.5-7.5-3.7c0.1-0.1,0.1-0.1,0.3-0.2c19.4,5.9,6.3,0.9,10.7,1.9c4.2,1.2,7.4,2,10.7,2.8
							C465.5,161.1,466.1,160.7,466.8,160.4z"/>
					</g>
					<g>
						<path class="st6" d="M447.5,167c-0.2,0.1-0.4,0.2-0.6,0.3c-4.1-0.3-8.2-0.7-12.4-1c-1,0.6-1.9,1.1-3,1.7
							c-0.6,0.4-1.2,0.7-1.8,1.1c1.5,0.9,4.9,2.6,2.5,2.2c7.4,2.9,14.7,5.9,22,8.8c6.8,2.4,12.6,4.4,19.4,6.8
							c-0.4,0.3-0.9,0.5-1.4,0.8c-2.7-0.2-5.4-0.4-7.2-0.3c-4.9-1.7-9.8-3.4-14.6-5c-0.2,0.1-0.3,0.2-0.5,0.3
							c0.6,1.4,1.3,2.8,0.9,3.9c-17.7-6.8-17.4-7-29.9-12.3c3.4,0.7,6.8,1.5,10.2,2.2c-8.5-3.1-18-6.7-27.4-10.2
							c-0.4-0.6-1.8-1.6-2.2-2.3c1.1-0.6,2.1-1.2,3.2-1.8c0.3-0.2,0.5-0.3,0.8-0.5c3.2,0.9,6.4,1.7,9.7,2.5c0.6-0.4,1.2-0.7,1.8-1.1
							c-2.4-1.3-4.8-2.6-7.2-3.9c3.4,0.7,6.8,1.4,10.2,2.2c-2.3-1.4-4.7-2.7-7-4c0.7-0.4,1.4-0.8,2.1-1.2c3.3,0.8,6.5,1.7,9.7,2.5
							C432.5,161.2,440,164.1,447.5,167z"/>
					</g>
					<g>
						<path class="st6" d="M234.5,96.1c1.1,1.2,27.2,10.3,21.3,9.2c-3.3-0.8-6.6-1.6-9.9-2.3c-11.9-4.8-23.8-9.6-35.6-14.4
							C218.3,91.1,226.3,93.6,234.5,96.1z"/>
					</g>
					<g>
						<path class="st7" d="M431.3,176.2c-3.4-0.7-6.8-1.5-10.2-2.2c16.8,6.5,6.4,4.4,29.9,12.3c-0.8,0.5-1.8,1-2.7,1.5
							c-0.3,0.2-0.7,0.4-1.1,0.6c-8-2.6-16-5.1-24-7.7c7.5,2.9,15,5.7,22.4,8.6c-1.5,0.9-3,1.7-4.5,2.6c-5-1.6-9.2-2.8-14.2-4.4
							c4.2,2.1-42.9,6.7-38.8,8.8c-1.7,0.1-4.3-0.2-7-0.5c-13-5.1-26-10.1-40-15.5c0.7-0.4,51.7-3.7,52.4-4.1
							c5.1,1.6,10.1,3.1,15.1,4.7c-10.1-4.9-16.3-7.6-20.4-9.7c1.7-0.1,4.3,0.2,6,0.2c2.3,0.4,4.7,0.9,6.1,1
							c0.4-0.3,0.9-0.5,1.4-0.8c3.2,0.9,6.3,1.7,10.3,3c-4.5-1.9-9-3.8-13.5-5.7c1.2-0.7,2.4-1.3,3.5-2c-0.9-0.4-2.7-1.1-3.5-1.5
							c1.5,0,3.9,0.4,5.5,0.5C413.3,169.5,422.8,173,431.3,176.2z"/>
					</g>
					<g>
						<path class="st6" d="M456.3,192.2c-4.2-1.2-7.4-2-10.7-2.8c-7.4-2.9-14.8-5.7-22.4-8.6c8,2.6,16,5.1,24,7.7
							C449.9,189.6,452.6,190.7,456.3,192.2z"/>
					</g>
					<g>
						<path class="st6" d="M410.6,209.4c0.7,0.5,2.4,1.2,4.2,2c-2.6-0.3-5.2-0.6-6.9-0.5c-0.1,0.1-0.2,0.1-0.3,0.1
							c-4.7-1.7-9.5-3.4-18.1-6.6c-3.4-1.6-5.8-2.9-8.2-4.2c0.5-0.3,1.1-0.6,1.6-0.9C392.5,202.8,401.1,205.9,410.6,209.4z"/>
					</g>
					<g>
						<path class="st6" d="M48.4,78.5c4.9,2.6,10.8,5.4,15.7,7.9c-2.2-0.5-3.4-0.7-5.6-1.2c-7.6-2.8-15.3-5.5-22.9-8.3
							c-4.9-2.6-10.8-5.4-15.7-7.9c1.2,0.2,3.4,0.7,5.6,1.2C33.1,73,40.8,75.7,48.4,78.5z"/>
					</g>
					<g>
						<path class="st6" d="M432.3,227.3c0.3,0.7,1.6,1.8,1.9,2.5c-8-2.6-16-5.1-24-7.7c26.1,10,20.5,8.8,21,9.4
							c-8-2.6-13.4-3.9-24-7.7c-1-0.3-2.9-1-3.8-1.4c-3.1-1.8-5.2-3.3-7.4-4.7c0.3-0.2,0.5-0.3,0.8-0.5c-2.2-1.4-4.5-2.8-7.7-4.5
							c4.4,1.1,7.8,1.8,11.2,2.5C410.7,219.1,421,223,432.3,227.3z"/>
					</g>
					<g>
						<path class="st6" d="M240.7,169.2c30,10.5,40.2,15.4,64.4,23.8c2.8,1.1,5.6,2.2,8.3,3.3c-0.1,0-0.2,0.1-0.3,0.2
							c-3.2-0.8-6.4-1.7-9.6-2.5c-4.4,0.7-36.6-12.1-66.6-22.6c-7.1-3.1-14.4-6-21.6-9.1c7.9,2.6,15.8,5.2,23.8,7.8
							c0.4-0.3,0.9-0.5,1.3-0.8C240.5,169.3,240.6,169.3,240.7,169.2z"/>
					</g>
					<g>
						<path class="st6" d="M151.6,139c-5.2-1.5-9.5-2.6-14.7-4.1c-10.4-3.9-25.1-8.9-31.4-12.4C128.1,130.1,149.7,137.4,151.6,139z"
							/>
					</g>
					<g>
						<path class="st4" d="M227.1,83.4c2.1,1.5,4.1,3,7.1,4.8c0.4,0.7,1.5,1.8,1.9,2.5c-13.4-4.8-26.7-9.7-41.1-14.9
							c0.6-0.3,1.1-0.6,1.6-0.9c2.9,1,5.9,2,9.9,3.3c3.6,0.6,7.3,1.1,11,1.7C224.2,82.3,225.2,82.7,227.1,83.4z"/>
					</g>
					<g>
						<path class="st4" d="M290.5,106.9c1.2,1.1-5.4-0.5,3.2,2.6c2.4,1.3,4.8,2.6,8.2,4.2c-10-2.4-1.9,1,6.9,4
							c1.7,0.8,2.5,1.3,4.2,2c-0.3,0.2-0.7,0.4-1,0.6c-18.2-5.7-23.8-6.9-12.5-1.8c-18.8-7.1-38.6-14.5-58.4-21.9
							c0.3-0.1,0.5-0.3,0.8-0.4c1.1-0.7,2.3-1.3,3.5-2c9,2,18,4,27,6C278.1,102.4,284.8,104.8,290.5,106.9z"/>
					</g>
					<g>
						<path class="st4" d="M205.4,86.9c-1,0.6-2,1.1-3,1.7c-10.6-3.8-21.2-7.5-31.8-11.3c-1.4-0.9-2.9-1.9-3.4-2.5
							c11.1,3.5,22.3,6.9,34.4,10.7C202.6,85.8,204.5,86.5,205.4,86.9z"/>
					</g>
					<g>
						<path class="st4" d="M404.9,161.9c-1.1,0.6-2.1,1.2-3.2,1.8c-6.6-2.4-12.2-4.6-18.8-7c-0.1-0.8,5.6,0.4-11.2-6.1
							c0.3-0.2,0.5-0.3,0.8-0.4C382.9,153.9,393.4,157.7,404.9,161.9z"/>
					</g>
					<g>
						<path class="st7" d="M202.4,88.6c7,3.1,14,6.2,21,9.3c-12.8-2.5-25.6-5,8.1,8.8c4.8,1.7,8.6,3.1,13.4,4.8
							c-0.9,0.5-2,1.1-3,1.7c-5.7-2.1-12.4-4.5-18.1-6.6c-5.9-2-12.7-4.3-18.6-6.3c-7.4-2.9-14.8-5.8-22.1-8.7
							c-4.4-1.1-7.8-1.8-11.2-2.5c-13.4-4.8-27.7-10-41.1-14.9c4.3,2,8.5,4.1,11.8,5.7c-1.6,0-4.1-0.3-5.7-0.3
							c-11.2-4.3-21.4-8.3-31.7-12.2c-1.4-1-2-1.6-3.4-2.5c8.1,2.5,16.2,5,24.2,7.5c0.4-0.2,0.7-0.4,1.2-0.6
							c10.2,3.1,19.4,5.9,29.5,9c4.7,1.7,9.6,3.5,13.4,4.8c5.5,0.4,11.6,1.4,4.3-2.5c-3.8-1.4-8.6-3.1-13.4-4.8
							c-5.3-2.3-3.7-2.3,7.5,0.2c0.7-0.4,1.4-0.8,2.1-1.2C181.3,81.1,191.9,84.8,202.4,88.6z"/>
					</g>
					<g>
						<path class="st4" d="M174.4,83.2c7.3,3.8,1.2,2.9-4.3,2.5c-3.8-1.4-8.6-3.1-13.4-4.8c1.5-0.8,2.8-1.6,4.3-2.5
							C165.8,80.1,170.6,81.8,174.4,83.2z"/>
					</g>
					<g>
						<path class="st4" d="M243.2,108.1c12.2,4.6,19.4,7.6,21.6,9.1c-4.1-1.2-9.3-2.7-14.5-4.2c5.2,1.6,10.3,3.1,14.5,4.2
							C262.6,115.7,255.4,112.7,243.2,108.1z"/>
					</g>
					<g>
						<path class="st4" d="M242,113.2c1.4,1,1.8,1.7,3.2,2.6c-11.6-4-22.5-7.6-40.8-15c0.3-0.2,0.6-0.3,0.8-0.5
							c5.9,2,12.8,4.3,18.6,6.3C229.6,108.7,236.3,111.1,242,113.2z"/>
					</g>
					<g>
						<path class="st8" d="M371.3,163.2c-12-3.8-13.1-3.3-2.1,1.2c-0.8,0.5-1.6,0.9-2.5,1.4c-1.5-0.1-54.2,2.5-55.7,2.4
							c10,4.1,20.1,8.1,30.2,12.2c-3.2-0.8-6.5-1.7-9.7-2.5c-0.2,1,0.5,2.3,0.4,3.4c-4.6-0.9-5.5-0.5-6.2,0
							c-5.2-1.5-10.4-2.9-15.7-4.4c-1.8,0.1-27.8-9.1-30.6-8.3c-1.6,0,6.5,3.4,16.9,8.1c21.9,8,23.3,9,16.2,7.7
							c2.7,1.1,5.4,2.3,8.1,3.4c9.6,3.5,19.1,6.9,41.8,15.3c-5.5-1.3-11-2.6-16.5-3.9c2.3,1.4,4.5,2.8,7.7,4.5
							c-6.9-2.3-12.8-4.3-18.7-6.2c-4.4-1.1-7.8-1.8-11.2-2.5c-9.3-3.6-17.6-6.9-26.8-10.5c-7-3.1-14.1-6.2-21.1-9.4
							c-18.6-7.1-35.4-14.5-58.3-21.9c-10.3-3.9-21.6-8.1-32-12c-8.9-2.9-18.6-6.3-32.3-10.9c-0.2,0.1-0.4,0.2-0.6,0.3
							c-12.7-4.3-25.3-8.7-38-13c-5.3-2.3-11.5-5-16.8-7.3c-5.6-2.2-12.1-4.7-17.6-6.9c-6.3-2.6-11.7-4.9-17-7.2
							c-1.2-1.1-2.4-2.2-2.6-2.9c-3.7-1.5-6.4-2.6-9-3.8c-2.7-1.1-5.4-2.3-8.1-3.4c9,2.8,19.1,6.1,28.1,8.9c2,0.6,4,1.3,5.1,1.6
							c-4.2-2.1-7.3-3.8-11.4-5.9c-2.8-2-4.6-3.6-6.4-5.3c2.2,0.5,3.4,0.7,5.6,1.2c6.2,1.8,13.5,3.9,19.7,5.7c4.5,1.9,19.5,7.5,13,6
							c5.4,2.3,10.8,4.5,17.1,7.2c39.2,13.3,6.4-0.1,12.9,0.6c4.4,1.1,7.8,1.8,11.2,2.5c3.4,0.8,6.8,1.5,11.2,2.5
							c8.3,2.4,65.9,1.6,75.1,4.4c0.2-0.1,0.4-0.2,0.6-0.3c9.1,2.8,19.3,6.8,27.5,9.2c-5.1-2.4-11.1-5.2-16.2-7.7
							c13.7,4.6,16.1,5.1,6.9,0.5c1.5,0,3.9,0.4,6.4,0.8c13.4,4.8,27.7,10,41.1,14.9c0.7,0.5,2.3,1.4,4,2.2c-1.4,0.8-2.7,1.5-4,2.3
							c9.1,3.7-2.4,0.5,11.4,5.9c6.7-0.2,50.3,15,38.7,8.2c5.2,1.5,9.3,2.7,14.5,4.2C360.2,158,366.1,160.8,371.3,163.2z"/>
					</g>
					<g>
						<path class="st4" d="M171.9,89.1c4,2.1-6.9-1.4-29.3-9.1c-3.3-1.7-7.5-3.7-11.8-5.7C144.2,79,158.5,84.2,171.9,89.1z"/>
					</g>
					<g>
						<path class="st4" d="M136.9,79.7c-0.3,0.2-0.6,0.3-0.8,0.4c2.3,1.4,4.6,2.7,7,4c3.8,2.3,33.2,12.2,21.3,9.2
							c-8.6-2.2-56.6,2.9-80.4-5.8c-6.1-1.9-13.2-4.1-19.3-6c-1.5-1.8,47.3-6.5,45.8-8.3c-6.4-2.6-11.7-4.9-18-7.5
							c0.3-0.2,0.7-0.4,1-0.6c4.6,1,8.1,1.6,11.7,2.2C115.5,71.4,125.7,75.3,136.9,79.7z"/>
					</g>
					<g>
						<path class="st4" d="M388.2,171.4c4.1,2.1,10.3,4.8,20.4,9.7c-5-1.6-10-3.2-15.1-4.7c-8.3-3.3-17.6-6.9-26.9-10.5
							c0.9-0.5,1.6-0.9,2.5-1.4C375.8,166.9,381.5,168.9,388.2,171.4z"/>
					</g>
					<g>
						<path class="st4" d="M341.1,180.4c13.9,5.4,27,10.4,40,15.5c0.9,1.2,1.9,2.5,1.9,3.4c-0.6,0.3-1.1,0.6-1.6,0.9
							c-7.6-2.8-15.3-5.5-22.9-8.3c-8.2-3.3-17.4-7-26.6-10.6c0.2-1-0.5-2.4-0.4-3.4C334.7,178.8,337.9,179.6,341.1,180.4z"/>
					</g>
					<g>
						<path class="st4" d="M76.4,96.4c-1-0.3-3-0.9-5.1-1.6c-6.3-1.7-13.6-3.8-20-5.5c-2.7-1.1-5.4-2.3-8.1-3.4
							c-1.4-1-2.8-2-3.1-2.7c1.1,0.3,3.2,0.8,5.3,1.4C55.7,88.6,66,92.5,76.4,96.4z"/>
					</g>
					<g>
						<path class="st4" d="M401.7,214.5c-0.4,0.3-0.9,0.5-1.3,0.8c-3.3-0.7-6.8-1.5-11.2-2.5c-5.7-2.1-12.4-4.5-18.2-6.6
							c-1-1.2-12.2-5.5-6.6-4.2c-1.9-1.6,18.3,6.4,24,7.7C392.2,211,396.9,212.7,401.7,214.5z"/>
					</g>
					<g>
						<path class="st5" d="M79.9,103.3c5.6,2.2,12.1,4.7,17.6,6.9c5.3,2.3,11.5,5,16.8,7.3c12.7,4.3,25.3,8.7,38,13
							c0.2-0.1,0.4-0.2,0.6-0.3c13.7,4.7,23.4,8,32.3,10.9c10.3,3.9,21.7,8.2,32,12c22.9,7.5,39.7,14.8,58.3,21.9
							c7.1,3.1,14.1,6.3,21.1,9.4c-24.2-8.5-28.5-9.6-36.9-12.8c-1.8-0.8-3.5-1.6-4.2-2c-7.6-4.6-25.5-10.4-34.2-14.4
							c-5.4-1.4-10.8-2.7-16.2-4.1c-5-1.6-9.1-2.8-14.1-4.4c-4.8-1.7-9.6-3.5-14.4-5.2c-6.9-3.2-13.8-6.4-20.7-9.5
							c-0.7,0.4-1.4,0.8-2.2,1.2c-10.6-3.8-21.2-7.5-31.8-11.3c-5.3-1.4-10.6-2.8-16-4.3c-0.9,0.6-2,1.1-2.9,1.7
							c-4-1.3-9-2.9-13.9-4.5c-29.9-11.5-22.6-10.3-18.6-10.8c-1.5-0.9-2-1.5-3.4-2.5c6.2,1.8,13.5,3.9,19.8,5.6
							c-5.5-2.2-12.1-4.7-17.6-6.8c-4.8-1.7-8.8-3-13.7-4.7c1.8-0.1,4.5,0.1,7.2,0.3C68.3,98.4,73.7,100.6,79.9,103.3z"/>
					</g>
					<g>
						<path class="st4" d="M255.6,169.6c0.7,0.5,2.5,1.3,4.2,2c-0.4,0.3-0.9,0.5-1.4,0.8c-14.2-5.3-27.5-10.1-40.8-15
							c-8-3.4-25.6-9.5-26.6-10.6c5,1.6,9.1,2.8,14.1,4.4c5.5,1.4,10.9,2.7,16.2,4.1C230.1,159.2,248,165,255.6,169.6z"/>
					</g>
					<g>
						<path class="st4" d="M87,107.3c-6.3-1.7-13.5-3.9-19.8-5.6c-4.1-2.1-7.4-3.8-11.5-5.9c4.9,1.7,8.8,3,13.7,4.7
							C74.9,102.6,81.4,105.1,87,107.3z"/>
					</g>
					<g>
						<path class="st4" d="M156,132c6.9,3.1,13.9,6.3,20.7,9.5c-4-1.3-8.9-2.9-13.9-4.5c-20.7-6,12.4,6.3,6.3,5.3
							c7.5,2.9,14,5.4,22.4,8.6c0.1,0.9,1.1,2.1,1.1,2.9c-10.4-3.9-20.8-7.7-31.2-11.6c-4-2.1-8.1-4.3-12.2-6.4
							c-15.3-5.5-30.7-11-46.1-16.5c0.9-0.5,2-1.1,2.9-1.7c5.4,1.4,10.7,2.8,16,4.3c10.6,3.7,21.2,7.5,31.8,11.3
							C154.5,132.8,155.3,132.4,156,132z"/>
					</g>
					<g>
						<path class="st4" d="M408,227.8c4.9,1.6,9.9,3.3,14.9,4.9c1,0.4,2.9,1,3.8,1.4c3,1.9,5.1,3.4,7.1,4.9
							c-3.3-0.8-6.6-1.6-10.9-2.7c-1-0.3-3-0.9-4-1.2c-17.1-6.3-34-12.6-50.1-18.6c1.4,0.1,3.6,0.6,5.9,1.1c-7.6-3.7-13.3-6.7-20-10
							C372.5,214.2,390.2,221,408,227.8z"/>
					</g>
					<g>
						<path class="st7" d="M296.7,184.5c9.3,3.6,17.6,6.9,26.8,10.5c0.7,0.5,2.4,1.3,4,2.2c2.8,1.1,5.6,2.2,8.3,3.3
							c6.6,2.5,12.2,4.6,18.8,7.1c6.7,3.3,12.4,6.3,20,10c-2.3-0.5-4.5-1-5.9-1.1c-18.2-6.5-37.4-13.4-55.6-19.9
							c0.1-0.1,0.2-0.1,0.3-0.2c-2.7-1.1-5.5-2.2-8.3-3.3c-24.1-8.5-34.3-13.4-64.4-23.8c-0.1,0.1-0.2,0.1-0.3,0.2
							c-0.4,0.3-0.9,0.5-1.3,0.8c-7.9-2.6-15.8-5.2-23.8-7.8c-7.5-2.8-15-5.7-22.6-8.5c0-0.9-1.1-2.1-1.1-2.9
							c-8.4-3.2-14.9-5.8-22.4-8.6c6,1-27.1-11.3-6.3-5.3c5,1.6,9.9,3.2,13.9,4.5c4.8,1.7,9.6,3.5,14.4,5.2
							c1.1,1.2,18.6,7.2,26.6,10.6c13.2,4.9,26.6,9.8,40.8,15c0.4-0.3,0.9-0.5,1.4-0.8C268.2,174.8,272.5,176,296.7,184.5z"/>
					</g>
					<g>
						<path class="st4" d="M200.4,153.9c24.3,8.4,34.6,12.3,40.3,15.3c-0.1,0.1-0.2,0.1-0.3,0.2c-8.6-3.1-18.1-6.6-26.7-9.7
							C209.2,157.8,199.9,154.1,200.4,153.9z"/>
					</g>
					<g>
						<path class="st7" d="M575.2,150.1c1.8,1.6,3.5,3.3,5.3,5c1.5,1,2,1.6,3.5,2.5c-0.2,0.1-0.4,0.2-0.5,0.3
							c-22.8-7.5-12.7-2.6-16.6-3c-7-2.2-13.2-4.1-20.2-6.3c1.8-1,3.6-2.1-3.2-6.2c0.9-0.5,2-1.1,3-1.7c6.1,1.9,13.1,4.1,19.2,6
							C568.5,147.7,571.4,148.7,575.2,150.1z"/>
					</g>
					<g>
						<path class="st7" d="M358.7,81.3c-0.7,0.4-1.4,0.8-2.1,1.2c-6.7-2.4-12.4-4.5-19.1-6.9c-7.9-2.6-15.9-5.2-23.7-7.8
							c-0.9-0.4-2.7-1.1-3.6-1.5c7.7,2.7,3.7,0.5,15.5,3.6c1.1,0.3,3.2,0.9,5.3,1.4C339.6,74.4,349.1,77.8,358.7,81.3z"/>
					</g>
					<g>
						<path class="st7" d="M548.8,151.8c-0.6,0.3-1.1,0.6-1.6,0.9C547.7,152.5,548.2,152.2,548.8,151.8z"/>
					</g>
					<g>
						<path class="st7" d="M339.1,88c-2.4-0.4-4.9-0.8-6.3-0.8c-6-1.9-12.8-4.3-18.7-6.2c-7.6-2.8-15.1-5.6-22.7-8.5
							c-15.7-6.2-1.3-1.9-25.8-11.1c-2.1-1.5,9.5,1.7-11.2-6.1c1.1,0.3,3.2,0.9,4.3,1.1c6.9,2.3,12.8,4.3,19.7,6.6
							c28.2,10.6,31,9.9,56.1,18.8c4.4,1.9,11.8,4.8,8.5,4.1C341.6,86.6,340.4,87.3,339.1,88z"/>
					</g>
					<g>
						<path class="st7" d="M250.9,60.9c-0.4,0.2-0.7,0.4-1.1,0.6c-13.7-4.6-27.5-9.3-42.1-14.3c-2.5-1.3-4.9-2.5-3.4-2.5
							c5.1,1.5,10.3,3,15.4,4.6C230.1,53.2,240.5,57,250.9,60.9z"/>
					</g>
					<g>
						<path class="st7" d="M255.9,66.9c-6.3-1.7,9.7,4.3,8.2,4.2c-7.2-2.1-13.5-3.9-20.7-6c-3.4-0.7-6.8-1.5-10.2-2.2
							c-4.3-1.1-7.6-1.9-10.9-2.7c-12.7-4.3-24.4-8.3-37.1-12.7c-13.5-5.6-11.7-6.7,8.3-0.3c2-0.3,5-0.2,7.1-0.5
							c4.3,1.1,7.7,1.8,11.1,2.6c12.4,4.5,23.9,8.6,36.3,13.1c2.2,0.5,4.4,1.1,5.6,1.2c2.7,2,28.5,10.4,21.6,9.1
							C269,71,262,68.8,255.9,66.9z"/>
					</g>
					<g>
						<path class="st7" d="M268.8,93.5c-3.9-1.3-8.7-3-13.6-4.7c-2.8-0.2-4.7,0-7.5-0.2c1.9,0.7,2.7,1.1,4.5,1.9
							c-8.3-2.3-16.7-4.7-25-7.1c-1.9-0.7-2.9-1.1-9.6-3.5c-5.6-2.2-12.1-4.7-17.6-6.9c0.6-0.4,1.2-0.7,1.9-1.1
							c0.6-0.4,1.3-0.7,1.9-1.1c6.2,1.8,13.3,4,19.5,5.8c6.7,2.4,12.4,4.5,19.1,6.9c-1.9-1.6,3.7-0.3,15.8,3.5
							c7.6,2.8,15.3,5.5,22.9,8.3C277.2,94.9,273.5,94.3,268.8,93.5z"/>
					</g>
					<g>
						<path class="st7" d="M454.2,158.6c-3.6-0.6-7.3-1.2-11-1.7c0.1-0.1,0.1-0.1,0.3-0.2c1.5,0-14.6-5.9-2.6-2.9
							C445.6,155.5,450.4,157.2,454.2,158.6z"/>
					</g>
					<g>
						<path class="st7" d="M236.1,90.7c3.8,1.4,6.5,2.5,9.3,3.6c-1.1,0.6-2.3,1.3-3.5,2c-0.3,0.2-0.5,0.3-0.8,0.4
							c-2.6-0.3-4.1-0.3-6.6-0.6c-8.1-2.5-16.2-5-24.3-7.5c-1-0.3-2.9-1-4.8-1.7c-1-0.3-2.9-1-3.8-1.4c-8.1-3.4-14.2-6.1-21.3-9.2
							c4.5,1,10,2.3,15.5,3.6c3,1,5.9,2,9.9,3.3c-5.5-3.1-10.1-5.8-15.6-8.9c2,0.6,4,1.3,5.1,1.6C209.4,81,222.8,85.9,236.1,90.7z"
							/>
					</g>
					<g>
						<path class="st7" d="M83.9,92.1c-6.2-1.8-13.5-3.9-19.7-5.7c-4.9-2.5-10.8-5.4-15.7-7.9c2.9,1,5.9,2,8.9,2.9
							C59.6,82.8,77,88.9,83.9,92.1z"/>
					</g>
					<g>
						<path class="st7" d="M58.5,85.2c1.8,1.6,3.6,3.3,6.4,5.3c-7.1-2.2-13.2-4.1-19.3-5.9c-3.4-2.5-6.9-5-10.3-7.5
							c0.1-0.1,0.3-0.1,0.3-0.2C43.3,79.7,50.9,82.4,58.5,85.2z"/>
					</g>
					<g>
						<path class="st7" d="M399.9,211c1.6,0.9,2.1,1.5,3.7,2.3c-0.6,0.4-1.3,0.7-1.9,1.1c-4.8-1.7-9.5-3.4-13.3-4.8
							c6.7,1.5-13.7-5.5-17.8-7.7c5.4,1.4,10.9,2.7,16.2,4.1C391.5,207.8,395.2,209.2,399.9,211z"/>
					</g>
					<g>
						<path class="st7" d="M149.2,135.9c4.1,2.1,8.1,4.3,12.2,6.4c-3.8-1.3-6.8-2.3-9.8-3.3c-1.8-1.6-23.5-8.9-46.1-16.4
							c-5-2.5-11.1-5.2-16.2-7.7c4.9,1.6,9.9,3.3,13.9,4.5C118.5,124.9,133.9,130.4,149.2,135.9z"/>
					</g>
					<g>
						<path class="st5" d="M496.2,117.7c-2.1,1.2,37.2,17.1-5.1,2.9c6.9,3.2-19.1-5.1,16,7.8c1.8,0.7,3.7,1.5,4.5,1.9
							c-5.2-1.5-9.5-2.6-14.7-4.1c-6.7-2.4-12.6-4.4-18.4-6.4c-0.1,0.1-0.2,0.1-0.3,0.2c-2.4-0.4,13.7,5.6-2.2,1.3
							c-2.1-0.6-4.1-1.2-5.3-1.4c5.1,2.4,11.1,5.2,16.2,7.7c-7.2-2.1-19-6.1-15-3.9c-2.6-0.4-5.1-0.7-6.7-0.7
							c4.2,2.1,7.3,3.9,11.5,5.9c-0.7,0.4,0.5,1.5-9.9-2.3c-2.4-0.4-4.7-0.9-6.1-1c-5.1-1.6-10.1-3.2-15.1-4.7c4.3,2,8.6,4,13,6
							c-0.7,0.4-1.4,0.8-2.2,1.3c-7-2.2-13.1-4.1-19.2-6c5.2,2.4,10.4,4.8,16.5,7.5c2.2,1.5-5.8-1.2-10.9-2.7
							c-1.5-0.1-3.9-0.4-6.3-0.8c4.3,2.9-11.9-2.1-7.6,0.8c-2.6-0.3-5.2-0.6-6.9-0.5c-13.7-4.6-8.7-2.1-1.6,0.9
							c-1.2,0.7-2.5,1.4-3.7,2.2c-7-2.2-13.1-4.1-19.2-6c-25.9-10.1-13-6.8-15.6-8.9c-0.4-0.7-1.8-1.6-2.2-2.3
							c1.6,0,4.1,0.3,5.7,0.3c8.5,2.3-12.4-5.4-6.5-4.3c-3.8-1.4-6.7-2.4-9.6-3.5c3.5,0.7-31.3-12.4,6.9,0.5
							c2.4,1.3,4.8,2.6,8.2,4.2c9.3,2.7,19.6,5.7,28.9,8.4c-2-1.6-3.9-3.1-5.9-4.7c-10.8-3.6-22.5-7.6-33.3-11.3
							c-0.7-0.5-2.5-1.3-4.2-2c2.4,0.4,4.7,0.9,6.1,1c3.9,0.5,7.7,1,12.5,1.8c2.9,1,5.9,2,8.9,3c0.6-0.4,1.2-0.7,1.9-1.1
							c-2.9-1-5.7-2.1-8.6-3.1c-5-2.5-3.5-2.5,7.5,0.2c-1.6-1.8-9.5-5.3-24.2-12c6.3,1.8,13.5,3.9,19.7,5.7c9.8,3.3,13.9,4.5,19,6.1
							c0.4-0.3,0.9-0.5,1.3-0.8c3,0.9,6.1,1.9,10,3.2c0.6-0.4,1.3-0.7,1.9-1.1c9.5,2.6,20,5.5,30.4,8.5c-0.5-1.5,5.9-0.7-0.5-4.2
							c17,5.4,7.4,0.3,27,6C487.6,114.6,491.4,116,496.2,117.7z"/>
					</g>
					<g>
						<path class="st8" d="M378.8,108.2c-5.9-1.1,14.9,6.6,6.5,4.3c-1.6,0-4.2-0.3-5.7-0.3c0.4,0.7,1.8,1.6,2.2,2.3
							c2.6,2.1-10.3-1.2,15.6,8.9c2.6,1.2,5.2,2.4,7.8,3.6c-1.5-0.1-4-0.4-6.4-0.8c-1-0.3-2.9-1-3.8-1.4c-2.3-0.5-4.6-1-5.9-1.1
							c-9.9-3.3-18.9-6.2-28.7-9.4c16.9,7.3,15.1,8.3-3.2,1.8c4.4,2,8.8,3.9,12.2,5.5c1.4,1,2.8,2,3.2,2.6c-1.2-0.2-3.2-0.8-5.3-1.4
							c-7.8-2.7-15.6-5.3-23.5-8c-2.9-1-5.7-2.1-8.6-3.1c-9.7-3.4-18.5-6.4-28.2-9.8c-1.4-0.9-1.9-1.5-3.4-2.5
							c3.6,0.6,7.2,1.3,11.7,2.3c8,2.5,3.9,0.4,6.4,0.8c3.5,0.7,7,1.4,10.5,2c2,0.6,3.2,0.8,5.3,1.4c0.3-0.2,0.7-0.4,1.1-0.6
							c-1.3-1-1.6-1.8-2.9-2.8c-4.6-1.8-8.2-3.3-12.8-5.2c16,5.1,1.6-1.8,30.1,8.6c0.6-0.4,1.2-0.7,1.9-1.1c1.6,0,4.2,0.3,5.7,0.3
							c2.9,0.1,14.9,3.1,8.8-0.6C372.1,105.7,375,106.8,378.8,108.2z"/>
					</g>
					<g>
						<path class="st5" d="M396.5,127.4c-1.1,0.6-2.1,1.2-3.2,1.8c-6.1-1.8-13.1-4.1-19.3-5.9c5.6,2.2,12.1,4.7,17.6,6.9
							c-0.2,0.1-0.4,0.2-0.6,0.3c-5.9-2-12.7-4.3-18.7-6.3c-0.4-0.6-1.8-1.6-3.2-2.6c-3.4-1.6-7.8-3.5-12.2-5.5
							c18.3,6.5,20.1,5.5,3.2-1.8c9.9,3.3,18.9,6.2,28.7,9.4C391.5,124.9,394,126.2,396.5,127.4z"/>
					</g>
					<g>
						<path class="st5" d="M393.6,176.3c-0.7,0.4-51.7,3.7-52.4,4.1c-3.2-0.8-6.5-1.7-9.7-2.5c-23.3-9-12.6-6.2-20.5-9.7
							c1.5,0.1,54.2-2.5,55.7-2.4C376,169.5,385.3,173.1,393.6,176.3z"/>
					</g>
					<g>
						<path class="st5" d="M76.4,96.4c-1-0.3-3-0.9-5.1-1.6C63,91.6,53.7,88,45.4,84.7c0,0,0.2-0.1,0.2-0.1
							c6.1,1.8,12.2,3.7,19.3,5.9C69,92.6,72.2,94.3,76.4,96.4z"/>
					</g>
					<g>
						<path class="st8" d="M460.5,121.2c-3.3-0.8-6.6-1.5-10.9-2.7c2.6,2.1-4.8,0.1-25.1-7c-2.8-1.1-5.5-2.2-8.3-3.3
							c7.3,1.2,15.5,2.8,22.7,3.9C446.1,115.1,453.3,118.1,460.5,121.2z"/>
					</g>
					<g>
						<path class="st8" d="M413.3,117.9c-9.3-2.7-19.6-5.7-28.9-8.4c-3.4-1.6-5.8-2.9-8.2-4.2c-1.2-1.1-1.4-1.9-2.6-3
							c0.2-0.1,0.3-0.2,0.5-0.3c10.8,3.6,22.5,7.6,33.3,11.3C409.3,114.8,411.3,116.3,413.3,117.9z"/>
					</g>
					<g>
						<path class="st8" d="M320,120.3c0.9,0.4,2.6,1.2,4.5,1.9c-5.2-1.5-10.5-3-15.7-4.4c-8.8-3-16.9-6.4-6.9-4
							C307.6,115.8,313.4,117.9,320,120.3z"/>
					</g>
					<g>
						<path class="st8" d="M371.8,159.4c-4.1-1.2-7.2-2.1-10.4-3c-22.5-8.5-5-3.3-15.9-7.8c5.9,2,12.7,4.3,18.6,6.3
							C366.3,156.3,368.5,157.6,371.8,159.4z"/>
					</g>
					<g>
						<path class="st3" d="M588.8,167.3c-0.6,0.3-1.1,0.6-1.6,0.9c-1-0.3-2.9-1-3.8-1.4C582.8,166.3,562.5,159.1,588.8,167.3z"/>
					</g>
					<g>
						<path class="st3" d="M589,167.2c-0.1,0-0.2,0.1-0.2,0.1C588.8,167.3,588.9,167.2,589,167.2z"/>
					</g>
					<g>
						<path class="st1" d="M486.4,200.9c17.2,7.1-1,2.4,9.6,7c8.3,3.2,2.1,1.5-11.5-2.4c3.5,2.4,17.8,8.5,10.6,7.3
							c-7.1-2.2-68.6-3.6-74.3-4.8c-3.1-1.8,45-6.1,42.9-7.6c3.8,0.5,7.5,1,12.2,1.9c-2.8-2-4.5-3.6-6.3-5.3
							c0.5-0.3,1.1-0.6,1.6-0.9C476.3,197.7,481.3,199.3,486.4,200.9z"/>
					</g>
					<g>
						<path class="st7" d="M469,154.6c4.7,1.8,9.4,3.6,14,5.3c-0.6,0.4-1.2,0.7-1.8,1.1c-0.7,0.4-1.5,0.8-12.2-1.9
							c1.7-0.1-13.9-5.4-17.1-7.2c3.3,0.7,6.8,1.5,10.2,2.2C464.7,154.4,467.3,154.7,469,154.6z"/>
					</g>
					<g>
						<path class="st7" d="M161.9,52c-1.1-0.3-3.1-0.9-5.1-1.6C158.8,51.1,160.8,51.7,161.9,52z"/>
					</g>
					<g>
						<path class="st7" d="M443.2,156.9c2.5,1.2,5,2.5,7.5,3.7c-3.5-0.7-7-1.3-10.5-2C431.2,154.8,416.8,148.8,443.2,156.9z"/>
					</g>
				</g>
			</g>
		</g>
	</g>
</g>
<g>
	<g>
		<path d="M292.5,86h8c2.8,0,5,0.6,6.5,1.8c1.5,1.2,2.3,2.9,2.3,5.1v0.1c0,2.2-0.8,3.9-2.4,5.1c-1.6,1.2-3.8,1.8-6.5,1.8h-7.2v9
			h-0.7V86z M300.4,99.2c2.5,0,4.6-0.5,6-1.6c1.5-1.1,2.2-2.6,2.2-4.7v-0.1c0-2-0.7-3.5-2.1-4.6c-1.4-1.1-3.4-1.7-6-1.7h-7.3v12.6
			H300.4z"/>
		<path d="M321.3,109.3c-1.3,0-2.4-0.2-3.5-0.7c-1-0.5-1.9-1.1-2.7-1.8c-0.8-0.8-1.3-1.7-1.7-2.7c-0.4-1-0.6-2.1-0.6-3.3v-0.1
			c0-1.1,0.2-2.2,0.6-3.3c0.4-1,1-1.9,1.7-2.7c0.7-0.8,1.6-1.4,2.7-1.9c1-0.5,2.2-0.7,3.5-0.7c1.3,0,2.4,0.2,3.5,0.7
			c1,0.5,1.9,1.1,2.7,1.8c0.8,0.8,1.3,1.7,1.7,2.7c0.4,1,0.6,2.1,0.6,3.3v0.1c0,1.2-0.2,2.3-0.6,3.3c-0.4,1-1,1.9-1.7,2.7
			c-0.7,0.8-1.6,1.4-2.7,1.9C323.7,109.1,322.6,109.3,321.3,109.3z M321.3,108.6c1.2,0,2.2-0.2,3.2-0.6c0.9-0.4,1.8-1,2.5-1.7
			c0.7-0.7,1.2-1.6,1.6-2.5c0.4-1,0.6-2,0.6-3v-0.1c0-1.1-0.2-2.1-0.6-3c-0.4-1-0.9-1.8-1.6-2.5c-0.7-0.7-1.5-1.3-2.5-1.7
			c-1-0.4-2-0.6-3.1-0.6c-1.2,0-2.2,0.2-3.2,0.6c-0.9,0.4-1.8,1-2.5,1.7c-0.7,0.7-1.2,1.6-1.6,2.5c-0.4,1-0.6,2-0.6,3v0.1
			c0,1.1,0.2,2.1,0.6,3c0.4,1,0.9,1.8,1.6,2.5s1.5,1.3,2.5,1.7C319.1,108.4,320.2,108.6,321.3,108.6z M324,85.4l0.8,0.4l-3.5,3.7
			h-0.5L324,85.4z"/>
		<path d="M350.9,109.3c-1.2,0-2.3-0.2-3.3-0.7c-1-0.4-1.9-1.1-2.6-1.8c-0.7-0.8-1.3-1.7-1.7-2.7c-0.4-1-0.6-2.2-0.6-3.3v-0.1
			c0-1.2,0.2-2.3,0.6-3.3c0.4-1,1-1.9,1.7-2.7c0.7-0.8,1.6-1.4,2.6-1.8c1-0.4,2.1-0.7,3.3-0.7c0.9,0,1.8,0.1,2.6,0.4
			c0.8,0.3,1.5,0.7,2.2,1.1c0.7,0.5,1.2,1.1,1.7,1.7c0.5,0.7,0.8,1.4,1,2.2V85h0.7v23.9h-0.7v-5.1c-0.2,0.8-0.6,1.5-1,2.2
			c-0.5,0.7-1,1.2-1.7,1.7c-0.7,0.5-1.4,0.9-2.2,1.1C352.7,109.1,351.9,109.3,350.9,109.3z M351,108.6c1.1,0,2.1-0.2,3-0.6
			c0.9-0.4,1.7-1,2.4-1.7c0.7-0.7,1.2-1.6,1.5-2.5c0.4-0.9,0.6-2,0.6-3v-0.1c0-1-0.2-2-0.6-3c-0.4-1-0.9-1.8-1.6-2.5
			c-0.7-0.7-1.5-1.3-2.4-1.7c-0.9-0.4-1.9-0.6-3-0.6c-1.1,0-2.1,0.2-3,0.6c-0.9,0.4-1.7,1-2.4,1.7c-0.7,0.7-1.2,1.5-1.5,2.5
			c-0.4,1-0.5,2-0.5,3.1v0.1c0,1.1,0.2,2.1,0.5,3.1c0.4,1,0.9,1.8,1.5,2.5c0.7,0.7,1.4,1.3,2.4,1.7
			C348.8,108.4,349.8,108.6,351,108.6z"/>
		<path d="M372.3,109.3c-1.1,0-2.2-0.2-3.2-0.6c-1-0.4-1.9-1-2.6-1.7c-0.7-0.7-1.3-1.6-1.8-2.7c-0.4-1.1-0.7-2.2-0.7-3.5v-0.1
			c0-1.2,0.2-2.3,0.6-3.4c0.4-1,0.9-1.9,1.6-2.7c0.7-0.8,1.5-1.3,2.5-1.8c1-0.4,2-0.7,3.1-0.7c1.3,0,2.4,0.3,3.3,0.8
			c0.9,0.5,1.7,1.2,2.4,2c0.6,0.8,1.1,1.8,1.4,2.8c0.3,1,0.4,2,0.4,3.1v0.1h-14.6c0,1.2,0.2,2.2,0.7,3.2c0.4,0.9,1,1.8,1.6,2.4
			c0.7,0.7,1.4,1.2,2.3,1.6c0.9,0.4,1.8,0.5,2.9,0.5c1.3,0,2.4-0.3,3.5-1c1.1-0.6,1.9-1.4,2.6-2.3l0.6,0.4c-0.7,1-1.6,1.9-2.8,2.5
			C375,108.9,373.7,109.3,372.3,109.3z M378.8,100.3c0-0.9-0.2-1.9-0.5-2.7c-0.3-0.9-0.7-1.7-1.3-2.4c-0.6-0.7-1.3-1.3-2.1-1.7
			c-0.8-0.4-1.8-0.7-2.9-0.7c-1,0-2,0.2-2.8,0.6c-0.8,0.4-1.6,0.9-2.2,1.6c-0.6,0.7-1.1,1.5-1.5,2.4s-0.6,1.9-0.6,3H378.8z"/>
	</g>
	<g>
		<text transform="matrix(1 0 0 1 200.2959 157.9434)" class="st9 st10 st11">Primavera</text>
		<path class="st9" d="M460.4,133.6c0,0-8.7-24.8-0.9-16.8c2.8,2.8,4.2,5.5,4.2,5.5s9.8-16,10.3-4.8
			C474.5,125.2,460.4,133.6,460.4,133.6z"/>
	</g>
</g>
</svg>
