<?xml version="1.0" encoding="utf-8"?>
<!-- Generator: Adobe Illustrator 21.0.2, SVG Export Plug-In . SVG Version: 6.00 Build 0)  -->
<svg version="1.1" id="Layer_1" xmlns="http://www.w3.org/2000/svg" xmlns:xlink="http://www.w3.org/1999/xlink" x="0px" y="0px"
	 viewBox="0 0 353 132" style="enable-background:new 0 0 353 132;" xml:space="preserve">
<style type="text/css">
	.st0{opacity:0.85;}
	.st1{fill:#FAF1EF;}
	.st2{fill:#FDFAFA;}
	.st3{fill:#F7E9E6;}
	.st4{fill:#EED2CD;}
	.st5{fill:#ECCAC4;}
	.st6{fill:#F4E0DD;}
	.st7{fill:#F1DAD5;}
	.st8{fill:#E9C3BC;}
	.st9{fill:#333333;}
	.st10{font-family:'MagnoliaSky';}
	.st11{font-size:22.4805px;}
</style>
<g>
	<g>
		<g>
			<g class="st0">
				<g class="st0">
					<g>
						<path class="st1" d="M61.7,35.5c-1.8-0.3-3.6-0.6-5.9-1.1c-3.8-1.4-7.6-2.8-11.5-4.2c-2.9-1-2.2-0.5-2.3-0.5
							c2.6,1.2,9,3.4,13.2,4.9c3.2,1.3,5.8,2.4,9,3.8c0.8,0.9-23.6,3.2-22.9,4.2c-0.9,0.1-2.3,0-3.7-0.1c-1.5-0.5-3-1-4.4-1.5
							c-3.8-1.4-7.6-2.8-11.5-4.2c7.8,1.8-10.2-4.8-12-6.1c11.8,3.1,14.3-6.8,23.4-4.9c2.2,0.5,3.9,0.9,5.7,1.2
							c6.9,2.3,14.2,4.8,21.1,7.1C60.7,34.7,61,35,61.7,35.5z"/>
					</g>
					<g>
						<path class="st2" d="M55.3,34.6c-4.3-1.6-10.6-3.7-13.2-4.9c0.1-0.1-0.6-0.5,2.3,0.5c3.8,1.4,7.7,2.8,11.5,4.2
							C55.7,34.4,55.5,34.5,55.3,34.6z"/>
					</g>
					<g>
						<path class="st1" d="M239.2,126.6c5.9,2.8-11.3-3.4-20.6-7.4c0.5,0.2,1.5,0.5,2,0.6C226.8,122.1,233,124.4,239.2,126.6z"/>
					</g>
					<g>
						<path class="st2" d="M220.6,119.9c8.4,3.2,19.2,6.9,15.8,6.1C231.1,124.1,225.4,122,220.6,119.9z"/>
					</g>
					<g>
						<path class="st3" d="M327.1,89.3c1,0.8,2,1.6,3,2.3c5.7,2.5,11.4,5.1,17.1,7.6c-3.9-1.3-7.9-2.6-11.8-3.9
							c-11.7-4.4-14.2-4.8-25.9-8.9c1.1,0.7,2.1,1.5,3.7,2.4c-3.3-1.2-6.2-2.2-9.5-3.5c-2.7-1.6-1.9-1.6,1.3-0.8
							c-3.4-1.6-5.3-2.7,1.1-0.6c-1.4-1-3.3-2.1-5.2-3.3c0.1-0.1,0.2-0.1,0.3-0.1c5.4,1.8,10.8,3.6,16.6,5.6
							C320.7,87.2,323.7,88.2,327.1,89.3z"/>
					</g>
					<g>
						<path class="st1" d="M347.2,99.2c0.3,0.3,1.1,0.7,1.9,1.2c-2.5-0.3-4.6-0.5-8.8-1.7c-6.1,0.4-25.7-4-22.5-0.1
							c-5.8-0.7-12-1.6-25.4-4.7c-1-0.7-2.1-1.5-3.1-2.2c3.5,0.2,8.4,0.6-0.9-4c3.3-0.5,19.5,4.4,7-1.7c0.2-0.1,0.4-0.2,0.5-0.3
							c10.2,3.1,18.8,5.8,13.1,3.2c-3.3-1.2-6.2-2.2-9.1-3.3c0.3-0.2,0.5-0.3,0.8-0.5c0.5,0.2,1.4,0.5,1.9,0.7
							c0.3-0.1,0.5-0.3,0.8-0.5c0,0,0.1-0.1,0.1-0.1c3.3,1.2,6.2,2.3,9.5,3.5c-1.5-0.9-2.6-1.6-3.7-2.4c11.6,4.1,14.1,4.4,25.9,8.9
							C339.3,96.6,343.3,97.9,347.2,99.2z"/>
					</g>
					<g>
						<path class="st3" d="M309.1,88.9c5.7,2.6-2.9-0.1-13.1-3.2c1-0.1,2.5-0.1,4-0.1C302.8,86.7,305.7,87.7,309.1,88.9z"/>
					</g>
					<g>
						<path class="st3" d="M295.4,86c12.6,6.2-3.6,1.2-7,1.7c9.3,4.5,4.4,4.2,0.9,4c1,0.8,2.1,1.5,3.1,2.2c-0.1,0.1-0.2,0.1-0.3,0.2
							c-3.9-1.3-7.8-2.7-11.7-4c8.5,3.6,0.2,1.2,5.6,3.5c-2.5-0.4-4.4-0.6-6.4-0.8c-3.7,0.8-20.4-4-17-1c-10.1-2.7-3.7,1.2-13.1-1
							c-0.3,0.2-0.6,0.4-0.9,0.5c1.3,0.6,2.6,1.2,3.9,1.8c-2,0.7-4.5,1.2-6.5,1.9c-3.4-1.2-6.3-2.2-9.7-3.4c-3.7-1.5-7.3-2.9-11-4.4
							c1.2,0.2-0.5-0.6-1.2-1.1c0.3-0.2,0.6-0.4,0.9-0.5c0.5-0.3,1-0.6,1.5-0.8c2.1,0.2,4.1,0.3,6.2,0.5c-3.6-1.5-7.3-3-10.9-4.5
							c0.2-0.1,0.4-0.2,0.7-0.4c8.9,3,3.8,0.5,8.5,1.8c-0.7-0.5-1.4-1-1.6-1.3c1.7,0.3,3.5,0.7,5.3,1c7.9,2.2,18.5,5.9,15.3,4.2
							c2.7,0.7-3.3-1.7-3.5-2c6.2,1.4-2.2-1.4-3.9-2.3c0.4-0.2,0.7-0.4,1.1-0.6c5.4,1.4,5.8,1.2,6.1,1c0.3-0.2,0.6-0.4,0.9-0.5
							c2,0.7,4.4,1.5,6.8,2.3c-0.8-0.4-1-0.7-1.8-1.2c1.6,0,2.7-0.2,4.3-0.2c3.9,1.3,7.8,2.7,11.7,4c3.6,0.6-6.1-2.8-8.3-3.7
							c0.2-0.1,0.4-0.2,0.5-0.3c0,0,0.1,0,0.2-0.1c1.7,0.3,3.5,0.7,5.2,1c0.7-0.4,1.3-0.8,2-1.2c2.6,0.7,5.2,1.5,7.8,2.2
							c0.3-0.2,0.6-0.3,0.8-0.5c1.9,0.3,3.8,0.5,5.6,0.8c0.5-0.3,0.9-0.5,1.4-0.8c2.3,0.5,4.1,0.8,5.9,1.1
							C293.4,85.4,294.4,85.7,295.4,86z"/>
					</g>
					<g>
						<path class="st3" d="M111.9,21.9c0.4,0.2,1.3,0.6,1.8,0.8c4.5,2.3,1.5,1.8,5.3,3.7c-2.6-0.8-5.1-1.5-7.7-2.3
							c-0.7,0,0.5,0.6,1.7,1.3c0.8,0.4,1.1,0.7,2,1.1c-1.7-0.4-3.4-0.7-5.6-1.3c-6.6-2.5-13.2-4.9-20.3-7.6c0-0.4-0.6-1-1.2-1.6
							c1.4,0.1,2.7,0.2,3.6,0.2c0.2-0.1-4-1.7-6.2-2.7c-2.4-1.3,4.6,1,17,5c0.9,0.3,1.9,0.7,2.4,0.9
							C107.1,20.2,109.5,21.1,111.9,21.9z"/>
					</g>
					<g>
						<path class="st4" d="M187.4,43c2.7,1.1,5.4,2.2,8.7,3.5c7.3,3.4,11.3,5.1,12.1,6c-5.5-1.3-6.2-1.3-3.7-0.1
							c1.4,0.5,2.9,1,4.3,1.6c-0.3,0.2-0.6,0.4-0.9,0.5c-1.5-0.5-3-1-4.4-1.5c-2.4-0.4-4.3-0.6-6.3-0.9c-0.7,0-1.9-0.3-3.1-0.5
							c0.9,0.4,1.7,0.8,2.1,1c-0.1,0-0.2,0.1-0.2,0.1c0.6,0.6,0.7,0.9,1.3,1.5c-19.1-6.5-1.7,0.1-3.4-0.3c3.1,1.8-3,0.3-4.4,0.3
							c-0.8,0-2.1-0.1-2.9-0.1c-0.3,0.2-0.6,0.3-0.9,0.5c-14.3-5.2-7.1-1.7-15-4.3c-2-0.6-3.6-1-5.2-1.5c-0.3,0.1-0.5,0.3-0.8,0.5
							c2.1,1,9.2,3.6,6.5,3c-4.4-1.5-7.9-2.6-11.8-3.9c-0.3,0.2-0.5,0.3-3.2-0.4c-0.1,0.1-0.2,0.1-0.2,0.1c2.3,0.9,4,1.7,6.3,2.7
							c-3.1-0.9-6.7-1.9-9.9-2.8c0.4,0.2,1.3,0.6,2.1,1c-1.6,0-3.1,0-4.2,0.1c-0.1,0.1-0.2,0.1-0.4,0.2c-3.8-1.4-7.6-2.8-11.5-4.1
							c-6-1.9-8.8-2.5-7.9-1.7c-3.3-1.2-6.2-2.2-9.6-3.5c-0.3-0.3-1.1-0.7-1.4-1c2.1,0.1-5.8-2.9-6-3.3c0.1,0,0.1,0,0.1-0.1
							c2.6,0.8,5.1,1.5,7.7,2.3c4,0.9-5.3-2.8-8.2-4.2c0.1,0,0.2-0.1,0.3-0.2c2.8,0.6,5.6,1.3,8.4,1.9c0.2-0.1,0.4-0.2,0.5-0.3
							c7.7,1.9,2.3-0.4-0.9-1.7c0.6,0.1,1.7,0.4,2.8,0.6c3.1,0.9,6.6,2,9.6,3c4.8,1.2-7.9-3.5-8-3.9c1.7,0.4,3.4,0.7,5.1,1.1
							c3.6,1.1,6.7,1.9,10.4,3c0.7,0-7.3-3-4.1-2.1c3.1,0.9,6.6,2.1,9.6,3c3.5,0.7-9.4-3.5-10.8-4.5c0.2-0.1,0.4-0.2,0.6-0.3
							c-0.5-0.2-1.4-0.5-2.4-0.9c0.2-0.1,0.4-0.2,0.5-0.3c-5.2-1.9-10.4-3.9-15.6-5.8c-3.8-1.9-0.8-1.3-5.3-3.7
							c6.2,2.3,12.4,4.5,18.6,6.7c1.5,0.5,2.9,1,4.4,1.5c2.1,0.6,3.6,1.1,5.2,1.5c12.3,4.6,5.1,2.4,12.9,5.5
							c3.8,1.4,7.5,2.8,11.3,4.2c3,1,6.4,2.1,9.3,3.1c0.7,0,2,0.2,3.2,0.4c0.6-0.4,1.3-0.7,1.9-1.1c1.7,0.4-2-1.1-4.2-2
							c-12.5-4.5-13.9-4.1-28-9.4c6.8,1.5,9.3,1.8,9,1.1c2.9,0.6,5.8,1.1,8.3,1.5c0.1-0.1,0.3-0.2,0.4-0.2c3.9,1.3,7.9,2.6,11.9,3.9
							C181.2,40.7,184,41.8,187.4,43z"/>
					</g>
					<g>
						<path class="st5" d="M176.9,53c0.6,0.5,0.8,0.9,1.4,1.4c-0.2,0.1-0.4,0.2-0.5,0.3c-1-0.3-1.6-0.4-2.6-0.7
							c-1.8-0.3-3.5-0.7-5.3-1c-1.2-0.2,0.8,0.9-3.2-0.4c-2.3-0.5-4.1-0.8-5.9-1.1c0.7,0.5,1,0.8,1.7,1.2c4.9,1.7,9.3,3.2,14.1,4.9
							c1.4,0.5,2.9,1,4.3,1.6c3.9,1.3,7.8,2.6,11.7,4c1.8,0.7,3.2,1.3,4.5,1.9c-0.2,0.1-0.4,0.2-0.5,0.3c-0.2,0.1-0.4,0.3-0.7,0.4
							c-2.5-0.8-4.9-1.6-6.9-2.3c0.1,0.4,0.6,1,0.7,1.4c-0.5-0.2-1.5-0.5-2-0.6c-1.1-0.3-2.1-0.6-2.7-0.7c5.9,2.9,5.5,3.1,5.2,3.3
							c-10.7-3.7-10.1-3.1-7.5-2c0.2,0.3,0.9,0.8,1.6,1.3c2.9,1,5.8,2,9.2,3.2c2.8,1.1,6.1,2.3,9,3.4c0.1,0.4,0.8,0.9,1.4,1.4
							c4.9,2.1,1.7,1.2,5.7,3c-1.6-0.4-3.2-0.8-4.8-1.2c1.2,0.6,2.5,1.2,3.8,1.9c-1.5-0.5-3-0.9-4.6-1.4c-0.3,0.1-0.5,0.3-0.8,0.4
							c1.2,0.6,2.5,1.2,3.7,1.9c-3.5-0.7-1.5,0.4-7.9-1.7c-0.2,0.1-0.5,0.3-0.7,0.4c4.2,1.6,8.9,3.4,13.6,5.2
							c-0.1,0.1-0.3,0.2-0.4,0.2c-5.7-2.1-11-4-16.2-5.9c-0.1,0.1-0.3,0.1-0.4,0.2c8.4,3.2,5.5,2.6,5.6,3c3.3,1.2,6.1,2.3,9.4,3.5
							c0.2,0.3,0.9,0.8,1.1,1.2c-0.8,0-2-0.2-2.7-0.2c0.4,0.2,1.3,0.6,1.8,0.8c-0.6,0.3-1.2,0.7-1.7,1c2.3,0.9,4.5,1.9,6.7,2.8
							c-2-0.6-3.6-1.1-5.2-1.5c-0.2,0.1-0.5,0.3-0.7,0.4c-0.7,0-1.9-0.3-3.1-0.5c-0.8,0-2.1-0.1-3-0.1c-3.3-1.2-6.2-2.3-9.6-3.5
							c-5.5-2.2-4.9-2.5,1.1-0.6c-2.6-1.2-5.6-2.6-8.1-3.8c-2.6-0.8-4.7-1.4-7.3-2.1c5.8,3.4-16-4.2-19.3-4.1
							c-6.9-2.7-1.2-1.1-5.7-3c0.7-0.4,1.3-0.8,2-1.2c-0.8-0.4-1.7-0.8-2-1.1c-6.7-2.4-13.8-5-20.5-7.4c-1.2-0.2-2.4-0.4-3.2-0.4
							c4.6,2.3,3.4,2.1-3.5-0.3c2.6,1.2,5.6,2.6,8.1,3.8c-4.1-1.2-9.2-3.2-13.8-4.6c-0.1,0-0.2,0.1-0.3,0.2
							c-4.6-1.4-33.4-1-37.5-2.2c-2.2-0.5-3.9-0.9-5.6-1.3c-1.7-0.4-3.4-0.7-5.6-1.3c-3.3-0.4,13.2,6.3-6.5-0.3
							c-3.1-1.3-5.8-2.5-8.5-3.6c3.3,0.8-4.2-2.1-6.5-3c-3.5-1.6-12.2-4.6-13.3-5.3c1.4,0.1,2.8,0.2,3.7,0.1c3,0.9,6.6,2,9.6,3
							C63,49.9,87,47.3,91.3,48.4c6,1.5-8.7-3.5-10.6-4.6c-1.2-0.7-2.3-1.3-3.5-2c0.1-0.1,0.3-0.1,0.4-0.2c0.8,0,2.1,0.1,2.9,0.1
							c11.2,3.8,16.7,5.6,14.6,4.6c1.7,0.4,3.4,0.7,5.6,1.3c3.7,1.5,7.4,2.9,11.1,4.4c-0.1,0.1-0.3,0.2-0.4,0.2
							c9.2,3.7,14.6,5.5,20.4,7.5c-0.7-0.5-0.9-0.8-1.6-1.3c0.5-0.3,1-0.6,1.5-0.8c1.1,0.3,1.6,0.4,2.6,0.7c2.6,0.8,5.2,1.5,7.2,2.1
							c-1.1-0.7-4.7-2.2-10.8-4.5c2.2,0.5,3.9,0.9,5.7,1.2c-4.6-1.8-6.7-2.9-5.9-2.9c2.1,0.6,4.7,1.3,7.2,2.1
							c-2.1-1-4.2-2.1-5.8-2.9c1.6,0.4,3.3,0.8,5,1.2c3,0.5-10.1-4-10.6-4.6c1.3,0.2,2.1,0.2,3.3,0.3c9.9,3.7,19.8,7.4,29.2,11
							c-5.6-2.6-2.8-1.9,6.3,0.9c0.2-0.1,0.4-0.2,0.5-0.3c-0.9-0.4-1.3-0.6-2.1-1c1.7,0.4,3.4,0.7,5.6,1.3c-3.3-1.2-6.2-2.2-9.1-3.3
							c-1.7-0.8-2.9-1.5-4.1-2.1c-4.3-1.6-1-0.8-1.6-1.3c-2.9-1-6.2-2.3-9.1-3.3c-1-0.8-2-1.6-3.4-2.5c2.7,0.7,5.3,1.4,8,2.1
							c-2.1-1-4.2-2-6.4-3.1c2.4,0.4,4.2,0.7,6.1,1c0.1-0.1,0.3-0.2,0.4-0.2c1.1-0.2,2.6-0.2,4.2-0.1c-0.9-0.4-1.7-0.8-2.1-1
							c3.2,0.9,6.8,1.9,9.9,2.8c-2.3-0.9-4-1.7-6.3-2.7c0.1,0,0.2-0.1,0.2-0.1c2.7,0.7,2.9,0.6,3.2,0.4c4,1.3,7.5,2.4,11.8,3.9
							c-6.4-3-6-3.2-5.7-3.4c1.6,0.4,3.1,0.9,5.2,1.5C172.7,51.4,174.6,52.1,176.9,53z"/>
					</g>
					<g>
						<path class="st3" d="M106.7,28.9c7.3,3,15.3,6,15.4,6.3c-0.2,0.1-0.4,0.2-0.5,0.3c-4.8-1.7-9.1-3.3-13.8-5
							c-1.1-0.7-2.2-1.4-3.7-2.3C105.1,28.5,106.2,28.8,106.7,28.9z"/>
					</g>
					<g>
						<path class="st6" d="M108.7,34.5c-0.2,0.1-0.5,0.3-0.7,0.4c1,0.8,2,1.5,3,2.3c-0.3,0.2-0.7,0.4-0.9,0.5
							c-0.3,0.2-0.6,0.4-0.9,0.5c-6.8-2.3-14.1-4.9-21-7.2c2.6,1.2,5.7,2.6,8.3,3.7c3.7,1.4,7.4,2.9,11.1,4.4
							c-0.3,0.2-0.5,0.3-0.8,0.5c-0.5-0.2-1.5-0.5-2.5-0.8c2.8,1.5,5.1,2.9,7.8,4.5c-2-0.7-3.4-1.2-4.9-1.7
							c-2.7-0.7-5.5-1.3-7.7-1.8c3.5,1.5,6.6,2.9,10.7,4.6c-6-1.9-11.6-3.6-17.2-5.3c-4.5-1.9-8.5-3.6-13-5.5
							c1.8,0.3,3.5,0.7,5.7,1.2c-1.5-1-2.5-1.7-3.4-2.5c0.2-0.1,0.4-0.3,0.7-0.4c-2.7-1.1-6-2.4-8.7-3.5c0.3-0.2,0.5-0.3,3.2,0.4
							c0.8,0,2,0.2,3.2,0.4c0.8,0,2.1,0.1,3,0.1c1.4,0.1,2.8,0.2,3.7,0.1c0.5-0.7,0.5-1.6,0.5-2.5c1,0.3,2,0.6,2.5,0.8
							C96.2,30,102.5,32.2,108.7,34.5z"/>
					</g>
					<g>
						<path class="st3" d="M119.3,39.1c0.3,0.3,1.1,0.7,1.4,1c-3.1-0.9-6.7-2-9.7-2.9c-1-0.8-2-1.5-3-2.3
							C113.7,36.9,114.9,37.6,119.3,39.1z"/>
					</g>
					<g>
						<path class="st3" d="M143.5,48.5c2.1,1,4.2,2,6.4,3.1c-2.6-0.7-5.3-1.4-8-2.1c1.4,0.9,2.4,1.7,3.4,2.5c-4.5-1-9-2-13.5-3
							c-1.4-0.5-2.7-1.1-4.6-1.8c-0.2-0.4-0.8-0.9-1-1.2c-1.5-0.9-2.5-1.7-3.6-2.4c3.2,0.8,7,1.8,10.3,2.6c1.4,0.1,2.3,0,3.8,0.1
							C140.6,47.4,142,47.9,143.5,48.5z"/>
					</g>
					<g>
						<path class="st3" d="M117.9,41.7c-1.8-0.3-3.7-0.6-5.5-0.9c-2-0.7-3.5-1.2-4.9-1.7c-3.7-1.5-7.4-2.9-11.1-4.4
							c-2.6-1.2-5.7-2.6-8.3-3.7c6.8,2.3,14.1,4.9,21,7.2C111.8,39.4,115.1,40.6,117.9,41.7z"/>
					</g>
					<g>
						<path class="st3" d="M132,53.2c1.6,0.9,3.7,1.9,5.8,2.9c-2.6-0.7-5.1-1.5-7.2-2.1c-0.8,0,1.3,1,5.9,2.9
							c-1.8-0.3-3.5-0.7-5.7-1.2c6.1,2.3,9.7,3.8,10.8,4.5c-2.1-0.6-4.7-1.3-7.2-2.1c-1-0.3-1.6-0.4-2.6-0.7
							c-2.4-0.9-4.3-1.6-6.7-2.4c-16.9-6.9-10.4-5.6-4.1-4.4c-3.5-1.6-7-3.1-10.5-4.7c0.5-0.3,1-0.6,1.5-0.8
							c0.9,0.3,1.9,0.7,2.4,0.9C120.1,48.4,126.1,50.8,132,53.2z"/>
					</g>
					<g>
						<path class="st3" d="M241.7,95.3c1.4,0.5,2.9,1,4.3,1.6c2.2,1,4.3,2,6.5,3c-0.2,0.1-0.4,0.2-0.6,0.3c-0.7,0,8.1,3,3.5,2
							c-0.1,0-0.2,0.1-0.3,0.2c-0.8,0-2.1-0.2-2.8-0.2c-2.5-0.8-5-1.6-7.6-2.4c-0.3,0.1-0.5,0.3-0.8,0.4c0.9,0.8,1.8,1.7,3.1,2.7
							c-2.4-0.4-4.2-0.7-6.1-1c1.1,0.7-23,2.9-21.4,3.8c0.3,0.3,1.1,0.7,2,1.1c-2.7-0.3-4.9-0.4-7-0.4c-4.8-1.7-9.1-3.3-13.8-5
							c0-0.4-0.5-1.1-0.9-1.7c1.3,0.1,2.6,0.3,3.5,0.2c-2.1-1,21.5-3.4,19.4-4.4c2.5,0.8,4.6,1.4,7.1,2.2c0.7-0.4,1.5-0.9,2.3-1.3
							c1.6,0.4,3.2,0.8,5.4,1.4c-1.8-0.7-3.2-1.3-4.5-1.9c0.2-0.1,0.4-0.2,0.5-0.3c0.4-0.3,0.9-0.5,1.3-0.8c0.2-0.5-0.2-1.2-0.5-2
							c0.1-0.1,0.2-0.1,0.2-0.1C236.9,93.6,239.3,94.5,241.7,95.3z"/>
					</g>
					<g>
						<path class="st5" d="M188.3,97.7c3.8,1.4,7.7,2.8,11.5,4.2c1.2,0.7,2.4,1.3,4.1,2.1c-0.4,0.3-0.9,0.5-1.3,0.8
							c-2.7-0.7-5.4-1.4-8.1-2.1c2,1.1,12.3,4.6,8.9,3.8c-2.8-0.6-12.9-4.6-12-3.8c-2.8-0.7,2.8,1.5,3.3,2.1c2.9,1,6.2,2.3,9.1,3.3
							c1.6,0.9,2.7,1.6,3.9,2.3c-0.1,0.1-0.3,0.2-0.4,0.2c1.1,0.7,2.2,1.4,3.7,2.3c0.5,0.2,1.4,0.5,1.9,0.7c2.2,1,4.4,1.9,6.6,2.9
							c-0.4,0.2-1.3,0.3,1.2,1.6c-2.5-0.8-5-1.6-7.4-2.4c-8.9-3.4-17.8-6.8-26.7-10.2c-3.3-1.2-6.1-2.3-9.4-3.5
							c-1.4-0.5-2.8-1.1-4.2-1.6c-0.8-0.4-1.6-0.8-2-1.1c1.7,0.4,3.4,0.7,5.6,1.3c3,1,5.9,2,9.3,3.1c-1.6-0.9-2.7-1.6-3.9-2.3
							c2.7,0.7,5.5,1.3,8.3,2c-11.4-4.2-16.1-5.9-20.9-7.7c-1.3-0.6-2.7-1.2-4-1.7c3.5,0.6,2.8,0.2-8.1-3.8c-5.2-2.4-9.3-4-8.5-4.1
							c1.4-0.4,14.4,4.2,15.3,4.2c2.6,0.7,5.2,1.5,7.9,2.2c0.4-0.2,0.8-0.5,3.1,0C179.6,94.2,184.2,96.1,188.3,97.7z"/>
					</g>
					<g>
						<path class="st3" d="M212.9,107.3c10.7,4.1,8.3,3.7,5.5,3.1c8.9,3.4,5.6,2.6,3.9,2.2c9.3,4,5.5,3.5,2.9,2.8
							c-5.6-2.1-10.8-4.1-16-6c0.2-0.1,0.5-0.3,0.7-0.4c0.3-0.2,0.7-0.4,1-0.5c-0.8-0.4-1.1-0.7-1.9-1.2c-2.3-0.9-4.2-1.6-6.5-2.5
							c0.4-0.3,0.9-0.5,1.3-0.8C208.2,105.6,210.5,106.4,212.9,107.3z"/>
					</g>
					<g>
						<path class="st3" d="M30.7,44.7c-2.1-1-10-3.6-1.6-1.3C29.3,43.7,30,44.2,30.7,44.7z"/>
					</g>
					<g>
						<path class="st3" d="M226.2,116.6c3.2,1.7,6.6,3.4,17.4,7.4c0.3,0.3,1.1,0.7,1.9,1.2c-0.3,0.2-0.6,0.3-0.8,0.5
							c1.4,0.5,2.9,1,4.3,1.6c-1.4-0.1,0.5,1,6.1,3.2c2.4,1.3-5.5-1.3-8.2-2c-6.8-2.4-14-4.9-20.8-7.3c-1-0.8-2-1.5-3.5-2.4
							c-0.5-0.2-1.4-0.5-1.9-0.7c-2.5-1.2-1.6-1.3-1.2-1.6c-2.2-1-4.4-1.9-6.6-2.9c4.1,1.2,8.3,2.4,12.4,3.6
							c1.5,0.1-9.5-3.5-10.9-4.5C218.2,114.1,222.2,115.3,226.2,116.6z"/>
					</g>
					<g>
						<path class="st1" d="M191.2,42.6c0.7,0.5,1.4,1,1.6,1.3c2.4,0.9,4.8,1.7,7.2,2.6c7,2.7,3.7,1,16.2,5.5
							c-0.2,0.1-0.5,0.3-0.7,0.4c-2.5-0.8-4.6-1.4-9.5-3c-3.1-0.9-6.7-1.9-9.9-2.8c-3.2-1.3-6-2.4-8.7-3.5c0.4-0.2,0.7-0.4,1.1-0.6
							c-4.8-1.7-9.5-3.5-13.9-5c0.3-0.2,0.6-0.3,0.8-0.5c-2.6-1.2-4.3-2.4,3.5,0.2c8.8,3,6.3,2.7,12.9,5.1
							C191.6,42.4,191.4,42.5,191.2,42.6z"/>
					</g>
					<g>
						<path class="st1" d="M166,35.6c-0.1,0.1-0.3,0.2-0.4,0.2c-2.4-0.4-5.3-0.9-8.3-1.5c0.4,0.2,1.3,0.6,2.2,0.9
							c-2.4-0.4-4.3-0.6-6.3-0.9c0.7,0.5-8-2.6-5-1.2c-3.4-1.2-6.4-2.2-9.9-3.3c-10.2-4.4-7.3-3.9-6.8-4.6c2.6,0.7,5.2,1.5,7.8,2.2
							c-1.2-0.6-4.3-2,0.7-0.4c11.6,4.5,3.4,0.7,9.7,2.9c4.4,1.5,9.3,3.1,14.2,4.8C164.6,35.1,165.5,35.4,166,35.6z"/>
					</g>
					<g>
						<path class="st1" d="M102.3,18.5c-12.4-4.1-19.3-6.3-17-5c2.2,1,6.4,2.6,6.2,2.7c0.2-0.1-4-1.7-6.2-2.7
							C83,12.1,89.9,14.4,102.3,18.5z"/>
					</g>
					<g>
						<path class="st1" d="M104.7,19.4c-0.5-0.2-1.4-0.5-2.4-0.9C103.3,18.8,104.2,19.2,104.7,19.4z"/>
					</g>
					<g>
						<path class="st1" d="M89.1,17.6c7.1,2.6,13.7,5.1,20.3,7.6c-1,0.1-2.5,0.1-3.5,0.2c-10-3.2-10.9-2.7-4.1,0.1
							c1.8,1.2,6,2.8,5.7,3c-0.2,0.1-0.4,0.3-0.7,0.4c-0.5-0.1-1.6-0.4-2.7-0.7c-4.6-1-9.2-1.9-13.7-2.9c-0.9,0.1-2.3,0-3.3,0.1
							c1,0.8,2,1.6,2.9,2.3c-0.5-0.1-1.5-0.4-2.5-0.8c0,0.9,0,1.8-0.5,2.5c-0.9,0.1-2.3,0-3.7-0.1c-0.9,0-2.1-0.1-3-0.1
							c-1.2-0.2-2.4-0.4-3.2-0.4c-2.7-0.7-2.9-0.6-3.2-0.4c2.7,1.1,6,2.4,8.7,3.5c-0.2,0.1-0.4,0.3-0.7,0.4c1,0.8,2,1.5,3.4,2.5
							c-2.2-0.5-4-0.8-5.7-1.2c4.5,1.9,8.5,3.6,13,5.5c0.3,0.3,1,0.8,1.7,1.2c-0.4,0.2-0.7,0.4-1.1,0.6c-5.6-1.3-6.4-1.3-3.7-0.1
							c-0.7,0.4-1.4,0.8-2.2,1.2c-5.1-1.6-9.7-2.9-14.8-4.5c-4.9-2.1-7.3-3.4-5.3-3.2c-3.6-1.5-7.2-3-10.8-4.5
							c-0.6-0.6,2.8,0.2-6-3.3c3.7,1,20.5,7.4,16.9,5.5c1.7,0.4-3.8-1.4-4.5-1.9c0-0.4-0.5-1-0.6-1.5c0.7,0,4.7,1.3,7.3,2.1
							c0.2-0.1,0.4-0.2,0.7-0.4c-4.8-1.7-9.1-3.3-13.8-5c-1.7-0.4-3.4-0.7-5.1-1.1c-4.3-1.6-7.6-2.8-11.3-4.2
							c0.4-0.2,0.6-0.3,0.8-0.4c4,1.3,7.6,2.3,12.1,3.8c-6.7-3.3,7.7,0.9-9-5.5c7.9,2.2-1.5-1.8-14.4-7c5.2-2.9,10.3-5.9,15.5-8.8
							c4.8,1.7,9.2,3.2,14,4.9c4.6,2.3,12.6,5.3,22.3,8.7c0.7,0,2,0.2,3.2,0.4c-4.7-1.8-9.3-3.6-13.5-5.2c5.6,1.7,11.2,3.4,16.8,5.1
							C88.5,16.6,89,17.2,89.1,17.6z"/>
					</g>
					<g>
						<path class="st1" d="M286,93.6c-5.4-2.3,3,0.1-5.6-3.5c3.9,1.3,7.8,2.7,11.7,4C288.6,93.5,306.5,100.2,286,93.6z"/>
					</g>
					<g>
						<path class="st1" d="M263.8,97.4c4.3,2.4-3.3,1.4,0.8,4c7.3,3-4.8-1.3-3.2-0.4c-1.7-0.4-3.3-0.8-5-1.2c-0.1,0-0.1,0.1-0.1,0.1
							c3.5,1.6,4.1,2.1-3.9,0c-2.2-1-4.3-2-6.5-3c-1.4-0.5-2.9-1-4.3-1.6c0.9-0.1,2.2,0,3.6,0.2c0.2-0.1,0.5-0.3,0.7-0.4
							c2-0.7,4.5-1.2,6.5-1.9c-1.3-0.6-2.6-1.2-3.9-1.8c0.3-0.2,0.6-0.4,0.9-0.5c9.4,2.2,3-1.7,13.1,1c-3.4-3,13.3,1.8,17,1
							c7.1,5.7-16.1-0.6-9,5.1c-1.7-0.4,6.4,3-3.2-0.4C266.5,97.7,265.1,97.5,263.8,97.4z"/>
					</g>
					<g>
						<path class="st1" d="M251.9,100.2c-0.7,0,8.1,3,3.5,2C260,103.1,251.2,100.1,251.9,100.2z"/>
					</g>
					<g>
						<path class="st1" d="M252.3,102.2c0.8,0,2.1,0.2,2.8,0.2C254.3,102.4,253.1,102.2,252.3,102.2z"/>
					</g>
					<g>
						<path class="st1" d="M221.5,106.9c2.6,2.5,16.2,8.1,21.3,11c4.3,2.5,3.1,3.1,8.4,5.9c0.9,0.8-2.8-0.2-5.6-0.8
							c-0.6,0.4-1.3,0.7-1.9,1.1c-10.8-4.1-14.2-5.7-17.4-7.4c-0.2-0.3-0.8-0.9-1-1.2c2.6,0.7,6.4,1.2-2.9-2.8
							c1.7,0.4,5,1.2-3.9-2.2c2.8,0.6,5.2,1-5.5-3.1c0,0,0.1,0,0.2-0.1c0.8,0,2.1,0.1,3.5,0.3c-0.9-0.4-1.7-0.8-2.1-1
							C216.6,106.5,218.8,106.6,221.5,106.9z"/>
					</g>
					<g>
						<path class="st1" d="M26.9,40.2c0,0-0.1,0-0.2,0.1c-5.2-1.9-10.5-3.8-15.8-5.7c0.3-0.2,0.5-0.3,0.7-0.4c2.2,0.5,4.7,1.3,7.4,2
							C21.5,37.5,24.4,38.9,26.9,40.2z"/>
					</g>
					<g>
						<path class="st1" d="M245.5,125.2c-1.2-0.2,8.1,3,3.5,2c-1.4-0.5-2.9-1-4.3-1.6C244.9,125.5,245.2,125.4,245.5,125.2z"/>
					</g>
					<g>
						<path class="st6" d="M296.7,76.8c9,3.3,21,7.6,26.1,10.5c1.3,0.6,2.5,1.3,4.2,2c-3.4-1.2-6.4-2.1-9.3-3.1
							c-5.9-2-11.3-3.8-16.6-5.6c-0.7-0.5-1-0.8-1.7-1.3C295.8,77.4,296.2,77.1,296.7,76.8z"/>
					</g>
					<g>
						<path class="st6" d="M300.9,80.7c1.9,1.1,3.8,2.3,5.2,3.3c-6.4-2.1-4.5-1-1.1,0.6c0.9,0.4,1.8,0.7,2.3,0.9
							c0.9,0.4,1.3,0.6,2.2,0.9c-1.8-0.3-3.6-0.6-5.9-1.1c0,0-0.1,0-0.1,0.1c-13.1-4.1-3-0.5-2.7-0.2c-0.3,0.2-0.5,0.3-0.8,0.5
							c-1.5,0-3-0.1-4,0.1c-0.2,0.1-0.4,0.2-0.5,0.3c-1-0.3-2.1-0.6-2.6-0.7c-10.2-3.5-8-2.1-5.9-1.1c-0.5,0.3-0.9,0.5-1.4,0.8
							c-8.3-2.4-6.6-1.6-5.4-0.9c-0.1,0.1-0.2,0.1-0.3,0.2c-0.3,0.1-0.5,0.3-0.8,0.5c-2.6-0.7-5.2-1.5-7.8-2.2
							c-1.8-0.8-4-1.7-6.3-2.7c0.5-0.3,1.1-0.6,1.6-0.9c0.3-0.2,0.6-0.3,0.8-0.5c1.7,0.4,3.4,0.7,5.6,1.3c3.5,0.7-2.6-1.6-1.4-1.4
							c-1.7-0.8-3-1.4-4.2-2c2.6,0.7,5.2,1.5,7.8,2.2c5,0.7-3.1-3.2,7.5-0.3c0.3-0.2,0.5-0.3,0.8-0.5c0-0.4-0.5-1-1-1.6
							c3.5,1.1,6.6,2,10.1,3.2C294.5,79.4,289.5,76.9,300.9,80.7z"/>
					</g>
					<g>
						<path class="st6" d="M136.3,29.4c10.3,3.9,4.5,2.3,5.6,3c-1.5-0.5-3.1-0.9-5.2-1.5c-1.5-0.5-2.9-1-4.4-1.5
							c-6.2-2.3-12.4-4.5-18.6-6.7c-0.4-0.2-1.3-0.6-1.8-0.8C119.5,24.3,128.1,26.9,136.3,29.4z"/>
					</g>
					<g>
						<path class="st6" d="M136.4,33.3c-0.2,0.1-0.4,0.2-0.6,0.3c-0.6-0.1-1.7-0.4-2.8-0.6c-6.2-2.2-11.9-4.3-18.1-6.6
							c-0.8-0.4-1.1-0.7-2-1.1c7.3,2.5,14.2,4.8,21.1,7.1C135,32.8,135.9,33.2,136.4,33.3z"/>
					</g>
					<g>
						<path class="st4" d="M265.6,62.5c1.4,0.6,2.7,1.1,4,1.7c-0.7,0-2-0.2-3.2-0.4c6.2,2.2,12.5,4.4,18.7,6.7
							c0,0.5,7.1,3.5,0.9,1.7c1.6,0.9,3.7,1.9,5.9,2.9c-3.1-0.9-6.6-2-9.6-3c-0.5,0.3-1,0.6-1.5,0.8c3.4,2.1,2.5,2.6,1.6,3.1
							c0.5,0.6,1,1.2,1,1.6c-0.3,0.2-0.5,0.3-0.8,0.5c-10.6-2.9-2.5,1-7.5,0.3c-2.6-0.7-5.2-1.5-7.8-2.2c-15.8-5.2-8.5-2.3-7.9-1.7
							c-1.2-0.2-2.3-0.5-3-0.5c-11.7-3.6-7.7-1.8-1.1,0.6c-0.1,0-0.2,0.1-0.3,0.2c-0.1,0.5,0.4,1.1,0.8,1.8c-2-0.6-3.5-1.1-5.1-1.6
							c-8.9-3.4-9.9-3.7-11.5-4.1c-2.3-0.5,4.7,2.2,8.4,3.7c5,2.5,4.1,3,0,2.2c-0.8,0-2.1-0.1-3.3-0.3c-3.3-0.8,4.6,2.3,6.4,3.1
							c-1.2-0.2-2.4-0.4-3.1-0.5c0,0.5-10.1-3.1-10.3-2.6c-3.7-1,6.3,2.6,6.1,2.7c-0.8,0-2.2-0.1-3.4-0.3c-1.7-0.4-3.4-0.7-5.1-1.1
							c1.6,0.9,9.4,3.5,8.5,3.6c-0.4,0.2-0.7,0.4-1.1,0.6c-0.3,0.2-0.6,0.3-0.9,0.5c-1.6-0.4-3.2-0.8-5.3-1.4
							c-1.9-0.7-4.3-1.6-6.7-2.4c-6-1.5,2.1,1.5,1.3,1.5c-0.1,0-0.1,0-0.1,0.1c-13.2-4-6-1-1.5,0.8c0.2,0.3,0.9,0.8,1.6,1.3
							c-4.8-1.3,0.3,1.1-8.5-1.8c-0.3,0.1-0.5,0.3-0.7,0.4c-1.6-0.4-3.2-0.8-4.9-1.2c-0.4,0.2-0.7,0.4-1.1,0.6
							c1.2,0.7,2.3,1.3,3.5,2c-1.7-0.4-3.4-0.7-5.1-1.1c1.2,0.6,2.4,1.3,3.6,1.9c-0.3,0.2-0.6,0.4-0.9,0.5c-1.6-0.4-3.2-0.8-4.8-1.3
							c-4.7-1.8-9.4-3.6-13.6-5.2c0.2-0.1,0.5-0.3,0.7-0.4c6.4,2.1,4.3,1.1,7.9,1.7c-1.2-0.6-2.5-1.2-3.7-1.9
							c0.3-0.1,0.5-0.3,0.8-0.4c1.5,0.5,3.1,0.9,4.6,1.4c-1.3-0.6-2.5-1.2-3.8-1.9c1.6,0.4,3.2,0.8,4.8,1.2c-4-1.7-0.8-0.9-5.7-3
							c-0.7-0.5-1.3-1-1.4-1.4c-2.9-1.1-6.1-2.3-9-3.4c-3.4-1.2-6.3-2.2-9.2-3.2c-0.7-0.5-1.4-1-1.6-1.3c-2.6-1.2-3.2-1.7,7.5,2
							c0.4-0.2,0.7-0.4-5.2-3.3c0.6,0.1,1.6,0.4,2.7,0.7c0.5,0.2,1.5,0.5,2,0.6c-0.1-0.4-0.6-1-0.7-1.4c2,0.6,4.5,1.5,6.9,2.3
							c0.2-0.1,0.5-0.3,0.7-0.4c0.2-0.1,0.4-0.2,0.5-0.3c-1.3-0.6-2.7-1.1-4.5-1.9c1,0.3,2.1,0.6,2.7,0.7c3,1,6.4,2.2,9.3,3.1
							c-2.7-1.1-5.8-2.5-8.5-3.6c3.1,0.9,6.6,2,9.6,3c0.5-0.3,1.1-0.6,1.6-0.9c-1.3-0.6-2.5-1.2-3.8-1.9c0.7,0.1,1.8,0.3,3,0.6
							c0.5,0.2,1.4,0.5,1.9,0.7c1.2,0.2,2.4,0.4,3.2,0.4c-1.3-0.6-2.6-1.2-3.9-1.8c3,0.9,6.1,1.9,9.6,3c0.6-0.4,1.2-0.7,1.9-1.1
							c-3.5-1.5-6.1-2.8,0.8-0.5c0.8,0,2.1,0.1,3.5,0.3c-2.1-1.5,6,1.1,3.8-0.4c1.2,0.2,2.4,0.4,3.2,0.4c2.5,0.8,6.5,2.1,5.4,1.3
							c-3.1-1.4-5.6-2.6-8.3-3.7c3,0.9,6.1,1.9,9.6,3c0.4-0.2,0.7-0.4,1.1-0.6c-2.2-1-4.3-2-6.5-3c2.5,0.8,5,1.6,7.6,2.4
							c0.7,0,1.9,0.3,3.1,0.5c5.2,1.9,4.6,1.4,5,1.2c-2.1-1-3.6-1.9-5.7-3c0.8,0,2,0.2,3.3,0.3c-2-1.1,3.9,0.9,7.5,2
							c-2.6-1.2-5.6-2.6-8.1-3.8c0.6,0.1,1.6,0.4,2.6,0.7c7.9,2.2-0.1-0.8,1.1-0.6c0,0,0.1,0,0.2-0.1c2.9,1,5.8,2,9.2,3.2
							c1.7,0.4,3.4,0.7,5.1,1.1c-17.6-6.5-4.6-2.3-8-3.9c21.2,7.1,1.5-0.8,2.5-1.5c-2.4-0.9-4.3-1.6-6.7-2.4
							c0.9-0.1,2.2,0.1,3.6,0.2C257.9,59.7,261.3,61,265.6,62.5z"/>
					</g>
					<g>
						<path class="st7" d="M271.6,78.2c-1.2-0.2,4.9,2.1,1.4,1.4c-2.2-0.5-3.9-0.9-5.6-1.3c-0.3,0.1-0.5,0.3-0.8,0.5
							c-0.5,0.3-1.1,0.6-1.6,0.9c2.3,0.9,4.5,1.9,6.3,2.7c-0.7,0.4-1.4,0.8-2,1.2c-1.7-0.3-3.5-0.7-5.2-1c-0.1,0-0.1,0.1-0.2,0.1
							c-0.2,0.1-0.4,0.2-0.5,0.3c-4.3-1.1-6-1.5-8.1-2.1c1.9,0.7,3.3,1.3,4.6,1.8c-1.6,0-2.7,0.2-4.3,0.2c-4-1.3-8-2.6-12-3.9
							c0.2-0.1-9.9-3.7-6.1-2.7c0.1-0.5,10.3,3.1,10.3,2.6c0.7,0,1.9,0.3,3.1,0.5c-1.8-0.8-9.6-3.9-6.4-3.1c1.3,0.2,2.6,0.3,3.3,0.3
							c4.1,0.8,5,0.3,0-2.2c-3.7-1.4-10.7-4.2-8.4-3.7c1.5,0.5,2.6,0.8,11.5,4.1c1.5,0.5,3,0.9,5.1,1.6c-0.4-0.6-0.8-1.3-0.8-1.8
							c0.1-0.1,0.2-0.1,0.3-0.2c-6.6-2.5-10.6-4.2,1.1-0.6c0.7,0.1,1.8,0.3,3,0.5c-0.6-0.5-7.9-3.5,7.9,1.7
							C268.6,76.8,269.8,77.5,271.6,78.2z"/>
					</g>
					<g>
						<path class="st6" d="M269.3,83.6c-1.7-0.3-3.5-0.7-5.2-1C265.8,82.9,267.5,83.2,269.3,83.6z"/>
					</g>
					<g>
						<path class="st6" d="M263.4,82.9c2.2,1,11.9,4.4,8.3,3.7c-3.9-1.3-7.8-2.7-11.7-4c-1.4-0.6-2.8-1.1-4.6-1.8
							C257.3,81.5,259,81.8,263.4,82.9z"/>
					</g>
					<g>
						<path class="st6" d="M125.7,33.2c0.1,0.4,12.8,5.1,8,3.9c-3.1-0.9-6.6-2-9.6-3c-1.1-0.3-2.2-0.5-2.8-0.6
							c3.2,1.3,8.6,3.6,0.9,1.7c-0.1-0.4-8.1-3.4-15.4-6.3c0.2-0.1,0.5-0.3,0.7-0.4c0.2-0.1-3.9-1.8-5.7-3
							c6.3,2.2,12.2,4.2,18.5,6.3C121.9,32.3,123.5,32.7,125.7,33.2z"/>
					</g>
					<g>
						<path class="st6" d="M255.6,82.9c0.8,0.4,1.1,0.7,1.8,1.2c-2.4-0.8-4.8-1.7-6.8-2.3c-2.3-0.9-4.7-1.8-7-2.7
							C247.6,80.4,251.6,81.6,255.6,82.9z"/>
					</g>
					<g>
						<path class="st7" d="M107.8,30.5c5.7,2.5,3,1.8,3.6,2.4c0.5,0.2,1.4,0.5,1.9,0.7c-0.1,0.1-0.2,0.1-0.3,0.2
							c3.7,1.5,7.3,3,10.9,4.5c-4.3-1.1,0.3,1.2-10.6-2.4c0.1,0.4,8.1,3.4,6,3.3c-4.4-1.5-5.6-2.2-11.3-4.2c0.2-0.1,0.4-0.3,0.7-0.4
							c-6.2-2.2-12.4-4.5-18.6-6.7c-1-0.8-2-1.5-2.9-2.3c0.9-0.1,2.3,0,3.3-0.1c4.6,1,9.2,1.9,13.7,2.9
							C105.6,29.1,106.7,29.8,107.8,30.5z"/>
					</g>
					<g>
						<path class="st6" d="M121.6,35.5c-2.8-0.6-5.6-1.3-8.4-1.9c-0.5-0.2-1.4-0.5-1.9-0.7c-0.6-0.6,2.2,0.1-3.6-2.4
							C112.6,32.2,116.9,33.8,121.6,35.5z"/>
					</g>
					<g>
						<path class="st6" d="M242.5,81.9c1.6,0.8,10,3.6,3.9,2.3c0.2,0.3,6.2,2.7,3.5,2c3.2,1.7-7.4-2-15.3-4.2
							c-1.3-0.6-2.5-1.2-3.8-1.9c0,0,0.1-0.1,0.1-0.1c9.7,2.9,3.1,0.5,5.4,0.9c2.1,0.6,3.7,1,5.3,1.4
							C241.9,82.3,242.2,82.1,242.5,81.9z"/>
					</g>
					<g>
						<path class="st6" d="M232.8,85.2c-0.1,0-0.2,0.1-0.3,0.2c-2-0.2-4.1-0.3-6.2-0.5c-0.5,0.3-1,0.6-1.5,0.8
							c-0.3,0.2-0.6,0.4-0.9,0.5c0.7,0.5,2.5,1.3,1.2,1.1c3.7,1.5,7.4,2.9,11,4.4c3.4,1.2,6.3,2.2,9.7,3.4c-0.2,0.1-0.5,0.3-0.7,0.4
							c-1.4-0.1-2.7-0.2-3.6-0.2c-2.4-0.8-4.9-1.7-7.3-2.5c-0.1,0.1-0.2,0.1-0.2,0.1c0.3,0.7,0.6,1.4,0.5,2c-8.9-3.4-8.7-3.5-15-6.2
							c1.7,0.4,3.4,0.7,5.1,1.1c-4.3-1.6-9-3.3-13.7-5.1c-0.2-0.3-0.9-0.8-1.1-1.2c0.5-0.3,1.1-0.6,1.6-0.9c0.1-0.1,0.3-0.2,0.4-0.2
							c1.6,0.4,3.2,0.8,4.8,1.3c0.3-0.2,0.6-0.4,0.9-0.5c-1.2-0.6-2.4-1.3-3.6-1.9c1.7,0.4,3.4,0.7,5.1,1.1c-1.2-0.7-2.3-1.3-3.5-2
							c0.4-0.2,0.7-0.4,1.1-0.6c1.6,0.4,3.2,0.8,4.9,1.2C225.4,82.4,229.1,83.8,232.8,85.2z"/>
					</g>
					<g>
						<path class="st6" d="M126.3,49.8c0.5,0.6,13.6,5.1,10.6,4.6c-1.6-0.4-3.3-0.8-5-1.2c-5.9-2.4-11.9-4.8-17.8-7.2
							C118.2,47.3,122.3,48.5,126.3,49.8z"/>
					</g>
					<g>
						<path class="st7" d="M224.8,89.8c-1.7-0.4-3.4-0.7-5.1-1.1c8.4,3.2,3.2,2.2,15,6.2c-0.4,0.2-0.9,0.5-1.3,0.8
							c-0.2,0.1-0.3,0.2-0.5,0.3c-4-1.3-8-2.6-12-3.9c3.8,1.4,7.5,2.9,11.2,4.3c-0.7,0.4-1.5,0.9-2.3,1.3c-2.5-0.8-4.6-1.4-7.1-2.2
							c2.1,1-21.5,3.4-19.4,4.4c-0.8,0-2.2-0.1-3.5-0.2c-6.5-2.5-13-5-20-7.8c0.4-0.2,25.9-1.8,26.2-2.1c2.5,0.8,5,1.6,7.6,2.4
							c-5-2.5-8.1-3.8-10.2-4.9c0.9,0,2.1,0.1,3,0.1c1.2,0.2,2.4,0.4,3.1,0.5c0.2-0.1,0.4-0.3,0.7-0.4c1.6,0.4,3.1,0.9,5.2,1.5
							c-2.3-0.9-4.5-1.9-6.7-2.8c0.6-0.3,1.2-0.7,1.7-1c-0.4-0.2-1.3-0.6-1.8-0.8c0.8,0,2,0.2,2.7,0.2
							C215.8,86.5,220.5,88.3,224.8,89.8z"/>
					</g>
					<g>
						<path class="st6" d="M237.2,97.9c-2.1-0.6-3.7-1-5.4-1.4c-3.7-1.4-7.4-2.9-11.2-4.3c4,1.3,8,2.6,12,3.9
							C234.1,96.6,235.4,97.1,237.2,97.9z"/>
					</g>
					<g>
						<path class="st6" d="M214.4,106.4c0.4,0.2,1.2,0.6,2.1,1c-1.3-0.1-2.6-0.3-3.5-0.3c-0.1,0-0.1,0.1-0.2,0.1
							c-2.4-0.9-4.8-1.7-9.1-3.3c-1.7-0.8-2.9-1.5-4.1-2.1c0.3-0.1,0.5-0.3,0.8-0.5C205.3,103.1,209.7,104.7,214.4,106.4z"/>
					</g>
					<g>
						<path class="st6" d="M33.3,41c2.4,1.3,5.4,2.7,7.9,4c-1.1-0.3-1.7-0.4-2.8-0.6c-3.8-1.4-7.6-2.8-11.5-4.1
							c-2.5-1.3-5.4-2.7-7.9-4c0.6,0.1,1.7,0.4,2.8,0.6C25.6,38.2,29.5,39.6,33.3,41z"/>
					</g>
					<g>
						<path class="st6" d="M225.3,115.4c0.2,0.4,0.8,0.9,1,1.2c-4-1.3-8-2.6-12-3.8c13.1,5,10.3,4.4,10.5,4.7c-4-1.3-6.7-2-12-3.8
							c-0.5-0.2-1.4-0.5-1.9-0.7c-1.5-0.9-2.6-1.6-3.7-2.3c0.1-0.1,0.3-0.2,0.4-0.2c-1.1-0.7-2.3-1.4-3.9-2.3
							c2.2,0.5,3.9,0.9,5.6,1.3C214.4,111.3,219.6,113.3,225.3,115.4z"/>
					</g>
					<g>
						<path class="st6" d="M129.4,86.3c15,5.2,20.1,7.7,32.2,11.9c1.4,0.5,2.8,1.1,4.2,1.6c0,0-0.1,0-0.1,0.1
							c-1.6-0.4-3.2-0.8-4.8-1.2c-2.2,0.4-18.3-6-33.3-11.3c-3.6-1.5-7.2-3-10.8-4.5c4,1.3,7.9,2.6,11.9,3.9
							c0.2-0.1,0.5-0.3,0.7-0.4C129.3,86.4,129.4,86.4,129.4,86.3z"/>
					</g>
					<g>
						<path class="st6" d="M84.9,71.2c-2.6-0.7-4.7-1.3-7.3-2C72.3,67.3,65,64.8,61.8,63C73.1,66.8,84,70.4,84.9,71.2z"/>
					</g>
					<g>
						<path class="st4" d="M122.6,43.4c1,0.7,2,1.5,3.6,2.4c0.2,0.4,0.8,0.9,1,1.2c-6.7-2.4-13.4-4.8-20.5-7.4
							c0.3-0.2,0.5-0.3,0.8-0.5c1.5,0.5,2.9,1,4.9,1.7c1.8,0.3,3.7,0.6,5.5,0.9C121.2,42.9,121.7,43.1,122.6,43.4z"/>
					</g>
					<g>
						<path class="st4" d="M154.3,55.2c0.6,0.6-2.7-0.2,1.6,1.3c1.2,0.7,2.4,1.3,4.1,2.1c-5-1.2-0.9,0.5,3.5,2
							c0.8,0.4,1.2,0.6,2.1,1c-0.2,0.1-0.4,0.2-0.5,0.3c-9.1-2.8-11.9-3.5-6.3-0.9c-9.4-3.5-19.3-7.2-29.2-11
							c0.1-0.1,0.3-0.1,0.4-0.2c0.6-0.3,1.2-0.7,1.7-1c4.5,1,9,2,13.5,3C148.1,52.9,151.5,54.1,154.3,55.2z"/>
					</g>
					<g>
						<path class="st4" d="M111.8,45.2c-0.5,0.3-1,0.6-1.5,0.8c-5.3-1.9-10.6-3.8-15.9-5.6c-0.7-0.5-1.5-0.9-1.7-1.2
							c5.6,1.7,11.2,3.4,17.2,5.3C110.4,44.7,111.3,45,111.8,45.2z"/>
					</g>
					<g>
						<path class="st4" d="M211.6,82.7c-0.5,0.3-1.1,0.6-1.6,0.9c-3.3-1.2-6.1-2.3-9.4-3.5c-0.1-0.4,2.8,0.2-5.6-3
							c0.1-0.1,0.2-0.1,0.4-0.2C200.6,78.7,205.8,80.6,211.6,82.7z"/>
					</g>
					<g>
						<path class="st7" d="M110.3,46c3.5,1.6,7,3.1,10.5,4.7c-6.4-1.3-12.8-2.5,4.1,4.4c2.4,0.9,4.3,1.6,6.7,2.4
							c-0.5,0.3-1,0.6-1.5,0.8c-2.9-1-6.2-2.2-9.1-3.3c-2.9-1-6.4-2.1-9.3-3.1c-3.7-1.5-7.4-2.9-11.1-4.4c-2.2-0.6-3.9-0.9-5.6-1.3
							c-6.7-2.4-13.9-5-20.5-7.4c2.1,1,4.2,2,5.9,2.9c-0.8,0-2.1-0.1-2.9-0.1c-5.6-2.2-10.7-4.1-15.8-6.1c-0.7-0.5-1-0.8-1.7-1.2
							c4.1,1.2,8.1,2.5,12.1,3.8c0.2-0.1,0.4-0.2,0.6-0.3c5.1,1.6,9.7,2.9,14.8,4.5c2.4,0.9,4.8,1.7,6.7,2.4
							c2.7,0.2,5.8,0.7,2.1-1.2c-1.9-0.7-4.3-1.6-6.7-2.4c-2.6-1.2-1.9-1.2,3.7,0.1c0.4-0.2,0.7-0.4,1.1-0.6
							C99.7,42.3,105,44.1,110.3,46z"/>
					</g>
					<g>
						<path class="st4" d="M96.3,43.3c3.7,1.9,0.6,1.4-2.1,1.2c-1.9-0.7-4.3-1.6-6.7-2.4c0.7-0.4,1.4-0.8,2.2-1.2
							C92,41.8,94.4,42.6,96.3,43.3z"/>
					</g>
					<g>
						<path class="st4" d="M130.7,55.8c6.1,2.3,9.7,3.8,10.8,4.5c-2.1-0.6-4.7-1.3-7.2-2.1c2.6,0.8,5.2,1.5,7.2,2.1
							C140.4,59.6,136.8,58.1,130.7,55.8z"/>
					</g>
					<g>
						<path class="st4" d="M130.1,58.3c0.7,0.5,0.9,0.8,1.6,1.3c-5.8-2-11.3-3.8-20.4-7.5c0.2-0.1,0.3-0.2,0.4-0.2
							c3,1,6.4,2.2,9.3,3.1C123.9,56.1,127.2,57.3,130.1,58.3z"/>
					</g>
					<g>
						<path class="st8" d="M194.7,83.4c-6-1.9-6.5-1.6-1.1,0.6c-0.4,0.2-0.8,0.5-1.2,0.7c-0.7,0-27.1,1.2-27.9,1.2
							c5,2,10.1,4.1,15.1,6.1c-1.6-0.4-3.2-0.8-4.9-1.2c-0.1,0.5,0.3,1.2,0.2,1.7c-2.3-0.5-2.7-0.2-3.1,0c-2.6-0.7-5.2-1.5-7.9-2.2
							c-0.9,0.1-13.9-4.5-15.3-4.2c-0.8,0,3.3,1.7,8.5,4.1c11,4,11.6,4.5,8.1,3.8c1.4,0.6,2.7,1.1,4,1.7c4.8,1.7,9.5,3.5,20.9,7.7
							c-2.8-0.7-5.5-1.3-8.3-2c1.1,0.7,2.3,1.4,3.9,2.3c-3.4-1.1-6.4-2.1-9.3-3.1c-2.2-0.5-3.9-0.9-5.6-1.3
							c-4.6-1.8-8.8-3.4-13.4-5.3c-3.5-1.6-7-3.1-10.6-4.7c-9.3-3.6-17.7-7.2-29.2-11c-5.2-1.9-10.8-4.1-16-6
							c-4.4-1.5-9.3-3.1-16.1-5.5c-0.1,0-0.2,0.1-0.3,0.2c-6.3-2.2-12.7-4.4-19-6.5c-2.6-1.2-5.8-2.5-8.4-3.7
							c-2.8-1.1-6-2.3-8.8-3.4c-3.1-1.3-5.8-2.5-8.5-3.6c-0.6-0.6-1.2-1.1-1.3-1.5c-1.8-0.7-3.2-1.3-4.5-1.9
							c-1.4-0.6-2.7-1.1-4.1-1.7c4.5,1.4,9.5,3,14,4.5c1,0.3,2,0.6,2.5,0.8c-2.1-1-3.7-1.9-5.7-3c-1.4-1-2.3-1.8-3.2-2.6
							c1.1,0.3,1.7,0.4,2.8,0.6c3.1,0.9,6.8,1.9,9.9,2.8c2.3,0.9,9.8,3.8,6.5,3c2.7,1.1,5.4,2.3,8.5,3.6c19.6,6.6,3.2,0,6.5,0.3
							c2.2,0.5,3.9,0.9,5.6,1.3c1.7,0.4,3.4,0.7,5.6,1.3c4.1,1.2,32.9,0.8,37.5,2.2c0.1-0.1,0.2-0.1,0.3-0.2
							c4.5,1.4,9.6,3.4,13.8,4.6c-2.6-1.2-5.6-2.6-8.1-3.8c6.9,2.3,8,2.5,3.5,0.3c0.8,0,2,0.2,3.2,0.4c6.7,2.4,13.9,5,20.5,7.4
							c0.3,0.3,1.2,0.7,2,1.1c-0.7,0.4-1.3,0.8-2,1.2c4.6,1.9-1.2,0.2,5.7,3c3.3-0.1,25.2,7.5,19.3,4.1c2.6,0.8,4.7,1.3,7.3,2.1
							C189.2,80.8,192.2,82.1,194.7,83.4z"/>
					</g>
					<g>
						<path class="st4" d="M95,46.3c2,1.1-3.4-0.7-14.6-4.6c-1.7-0.8-3.8-1.9-5.9-2.9C81.2,41.3,88.3,43.9,95,46.3z"/>
					</g>
					<g>
						<path class="st4" d="M77.5,41.6c-0.1,0.1-0.3,0.2-0.4,0.2c1.2,0.7,2.3,1.4,3.5,2c1.9,1.1,16.6,6.1,10.6,4.6
							C87,47.3,63,49.9,51.1,45.5c-3-0.9-6.6-2-9.6-3c-0.8-0.9,23.7-3.2,22.9-4.2c-3.2-1.3-5.8-2.5-9-3.8c0.2-0.1,0.4-0.2,0.5-0.3
							c2.3,0.5,4.1,0.8,5.9,1.1C66.8,37.4,71.9,39.4,77.5,41.6z"/>
					</g>
					<g>
						<path class="st4" d="M203.2,87.4c2.1,1,5.2,2.4,10.2,4.9c-2.5-0.8-5-1.6-7.6-2.4c-4.2-1.6-8.8-3.4-13.5-5.2
							c0.4-0.2,0.8-0.5,1.2-0.7C197,85.2,199.9,86.2,203.2,87.4z"/>
					</g>
					<g>
						<path class="st4" d="M179.7,92c7,2.7,13.5,5.2,20,7.8c0.5,0.6,0.9,1.3,0.9,1.7c-0.3,0.2-0.6,0.3-0.8,0.5
							c-3.8-1.4-7.6-2.8-11.5-4.2c-4.1-1.7-8.7-3.5-13.3-5.3c0.1-0.5-0.3-1.2-0.2-1.7C176.4,91.1,178,91.6,179.7,92z"/>
					</g>
					<g>
						<path class="st4" d="M47.3,49.9c-0.5-0.2-1.5-0.5-2.5-0.8c-3.2-0.9-6.8-1.9-10-2.7c-1.4-0.6-2.7-1.1-4.1-1.7
							c-0.7-0.5-1.4-1-1.6-1.3c0.6,0.1,1.6,0.4,2.7,0.7C36.9,46,42.1,48,47.3,49.9z"/>
					</g>
					<g>
						<path class="st4" d="M210,109c-0.2,0.1-0.4,0.3-0.7,0.4c-1.7-0.4-3.4-0.7-5.6-1.3c-2.9-1-6.2-2.2-9.1-3.3
							c-0.5-0.6-6.1-2.8-3.3-2.1c-1-0.8,9.2,3.2,12,3.8C205.2,107.3,207.6,108.1,210,109z"/>
					</g>
					<g>
						<path class="st5" d="M49,53.4c2.8,1.1,6,2.3,8.8,3.4c2.6,1.2,5.8,2.5,8.4,3.7c6.3,2.2,12.7,4.4,19,6.5
							c0.1-0.1,0.2-0.1,0.3-0.2c6.8,2.3,11.7,4,16.1,5.5c5.2,2,10.8,4.1,16,6c11.4,3.7,19.8,7.4,29.2,11c3.5,1.6,7,3.1,10.6,4.7
							c-12.1-4.2-14.2-4.8-18.4-6.4c-0.9-0.4-1.7-0.8-2.1-1c-3.8-2.3-12.7-5.2-17.1-7.2c-2.7-0.7-5.4-1.4-8.1-2
							c-2.5-0.8-4.6-1.4-7.1-2.2c-2.4-0.9-4.8-1.7-7.2-2.6c-3.4-1.6-6.9-3.2-10.4-4.8c-0.3,0.2-0.7,0.4-1.1,0.6
							c-5.3-1.9-10.6-3.8-15.9-5.6c-2.6-0.7-5.3-1.4-8-2.1c-0.5,0.3-1,0.6-1.5,0.8c-2-0.6-4.5-1.4-7-2.3c-15-5.7-11.3-5.1-9.3-5.4
							c-0.7-0.5-1-0.8-1.7-1.2c3.1,0.9,6.7,1.9,9.9,2.8c-2.8-1.1-6-2.3-8.8-3.4c-2.4-0.8-4.4-1.5-6.8-2.3c0.9-0.1,2.3,0.1,3.6,0.2
							C43.2,50.9,45.9,52.1,49,53.4z"/>
					</g>
					<g>
						<path class="st4" d="M136.9,86.5c0.4,0.2,1.2,0.6,2.1,1c-0.2,0.1-0.5,0.3-0.7,0.4c-7.1-2.6-13.8-5.1-20.4-7.5
							c-4-1.7-12.8-4.7-13.3-5.3c2.5,0.8,4.6,1.4,7.1,2.2c2.7,0.7,5.4,1.4,8.1,2C124.2,81.3,133.1,84.2,136.9,86.5z"/>
					</g>
					<g>
						<path class="st4" d="M52.6,55.4c-3.1-0.9-6.8-1.9-9.9-2.8c-2.1-1-3.7-1.9-5.8-3c2.4,0.8,4.4,1.5,6.8,2.3
							C46.5,53,49.8,54.3,52.6,55.4z"/>
					</g>
					<g>
						<path class="st4" d="M87.1,67.8c3.5,1.6,6.9,3.2,10.4,4.8c-2-0.6-4.5-1.5-7-2.3c-10.4-3,6.2,3.2,3.2,2.6
							c3.7,1.4,7,2.7,11.2,4.3c0,0.4,0.5,1,0.6,1.5c-5.2-1.9-10.4-3.9-15.6-5.8c-2-1.1-4-2.1-6.1-3.2c-7.7-2.8-15.4-5.5-23-8.2
							c0.5-0.3,1-0.6,1.5-0.8c2.7,0.7,5.3,1.4,8,2.1c5.3,1.9,10.6,3.7,15.9,5.6C86.4,68.2,86.7,68,87.1,67.8z"/>
					</g>
					<g>
						<path class="st4" d="M213.1,115.6c2.5,0.8,4.9,1.6,7.4,2.4c0.5,0.2,1.4,0.5,1.9,0.7c1.5,0.9,2.5,1.7,3.5,2.4
							c-1.7-0.4-3.3-0.8-5.4-1.3c-0.5-0.2-1.5-0.5-2-0.6c-8.5-3.2-17-6.3-25.1-9.3c0.7,0.1,1.8,0.3,2.9,0.6c-3.8-1.8-6.6-3.3-10-5
							C195.3,108.9,204.2,112.3,213.1,115.6z"/>
					</g>
					<g>
						<path class="st7" d="M157.4,94c4.6,1.8,8.8,3.4,13.4,5.3c0.3,0.3,1.2,0.7,2,1.1c1.4,0.6,2.8,1.1,4.2,1.6
							c3.3,1.2,6.1,2.3,9.4,3.5c3.3,1.7,6.2,3.2,10,5c-1.1-0.3-2.3-0.5-2.9-0.6c-9.1-3.3-18.7-6.7-27.8-9.9c0,0,0.1-0.1,0.1-0.1
							c-1.4-0.5-2.7-1.1-4.2-1.6c-12.1-4.2-17.2-6.7-32.2-11.9c-0.1,0-0.1,0.1-0.1,0.1c-0.2,0.1-0.5,0.3-0.7,0.4
							c-4-1.3-7.9-2.6-11.9-3.9c-3.8-1.4-7.5-2.8-11.3-4.2c0-0.4-0.5-1-0.6-1.5c-4.2-1.6-7.4-2.9-11.2-4.3c3,0.5-13.5-5.6-3.2-2.6
							c2.5,0.8,5,1.6,7,2.3c2.4,0.9,4.8,1.7,7.2,2.6c0.5,0.6,9.3,3.6,13.3,5.3c6.6,2.5,13.3,4.9,20.4,7.5c0.2-0.1,0.5-0.3,0.7-0.4
							C143.2,89.2,145.4,89.7,157.4,94z"/>
					</g>
					<g>
						<path class="st4" d="M109.3,78.7c12.1,4.2,17.3,6.2,20.1,7.7c-0.1,0-0.1,0.1-0.1,0.1c-4.3-1.6-9.1-3.3-13.4-4.8
							C113.7,80.6,109.1,78.8,109.3,78.7z"/>
					</g>
					<g>
						<path class="st7" d="M296.7,76.8c0.9,0.8,1.8,1.7,2.7,2.5c0.7,0.5,1,0.8,1.7,1.3c-0.1,0-0.2,0.1-0.3,0.1
							c-11.4-3.8-6.4-1.3-8.3-1.5c-3.5-1.1-6.6-2-10.1-3.2c0.9-0.5,1.8-1-1.6-3.1c0.5-0.3,1-0.6,1.5-0.8c3,0.9,6.6,2.1,9.6,3
							C293.4,75.6,294.8,76.1,296.7,76.8z"/>
					</g>
					<g>
						<path class="st7" d="M188.4,42.4c-0.4,0.2-0.7,0.4-1.1,0.6c-3.3-1.2-6.2-2.3-9.5-3.5c-4-1.3-7.9-2.6-11.9-3.9
							c-0.5-0.2-1.3-0.6-1.8-0.8c3.8,1.4,1.9,0.3,7.8,1.8c0.6,0.1,1.6,0.4,2.6,0.7C178.9,38.9,183.7,40.7,188.4,42.4z"/>
					</g>
					<g>
						<path class="st7" d="M283.5,77.7c-0.3,0.2-0.5,0.3-0.8,0.5C283,78,283.2,77.8,283.5,77.7z"/>
					</g>
					<g>
						<path class="st7" d="M178.6,45.8c-1.2-0.2-2.4-0.4-3.2-0.4c-3-1-6.4-2.1-9.3-3.1c-3.8-1.4-7.6-2.8-11.3-4.2
							c-7.8-3.1-0.7-1-12.9-5.5c-1.1-0.7,4.7,0.9-5.6-3c0.6,0.1,1.6,0.4,2.2,0.5c3.5,1.2,6.4,2.1,9.9,3.3c14.1,5.3,15.5,4.9,28,9.4
							c2.2,1,5.9,2.4,4.2,2C179.9,45,179.3,45.4,178.6,45.8z"/>
					</g>
					<g>
						<path class="st7" d="M134.6,32.2c-0.2,0.1-0.4,0.2-0.5,0.3c-6.8-2.3-13.7-4.6-21.1-7.1c-1.2-0.6-2.5-1.3-1.7-1.3
							c2.6,0.8,5.1,1.5,7.7,2.3C124.1,28.3,129.3,30.2,134.6,32.2z"/>
					</g>
					<g>
						<path class="st7" d="M137,35.2c-3.2-0.8,4.9,2.1,4.1,2.1c-3.6-1-6.8-1.9-10.4-3c-1.7-0.4-3.4-0.7-5.1-1.1
							c-2.1-0.6-3.8-1-5.4-1.3c-6.3-2.2-12.2-4.2-18.5-6.3c-6.8-2.8-5.8-3.3,4.1-0.1c1-0.1,2.5-0.1,3.5-0.2c2.2,0.5,3.9,0.9,5.6,1.3
							c6.2,2.3,11.9,4.3,18.1,6.6c1.1,0.3,2.2,0.5,2.8,0.6c1.4,1,14.3,5.2,10.8,4.5C143.6,37.3,140.1,36.1,137,35.2z"/>
					</g>
					<g>
						<path class="st7" d="M143.5,48.5c-2-0.7-4.4-1.5-6.8-2.3c-1.4-0.1-2.3,0-3.8-0.1c0.9,0.4,1.4,0.6,2.2,0.9
							c-4.2-1.2-8.3-2.4-12.5-3.5c-1-0.3-1.5-0.5-4.8-1.7c-2.8-1.1-6-2.3-8.8-3.4c0.3-0.2,0.6-0.4,0.9-0.5c0.3-0.2,0.6-0.4,0.9-0.5
							c3.1,0.9,6.7,2,9.7,2.9c3.3,1.2,6.2,2.2,9.6,3.5c-0.9-0.8,1.9-0.2,7.9,1.7c3.8,1.4,7.6,2.8,11.5,4.1
							C147.7,49.2,145.8,48.9,143.5,48.5z"/>
					</g>
					<g>
						<path class="st7" d="M236.2,81.1c-1.8-0.3-3.6-0.6-5.5-0.9c0,0,0.1-0.1,0.1-0.1c0.8,0-7.3-3-1.3-1.5
							C231.9,79.5,234.3,80.4,236.2,81.1z"/>
					</g>
					<g>
						<path class="st7" d="M127.2,47.1c1.9,0.7,3.3,1.3,4.6,1.8c-0.6,0.3-1.2,0.7-1.7,1c-0.2,0.1-0.3,0.2-0.4,0.2
							c-1.3-0.1-2.1-0.1-3.3-0.3c-4.1-1.3-8.1-2.5-12.1-3.8c-0.5-0.2-1.4-0.5-2.4-0.9c-0.5-0.2-1.4-0.5-1.9-0.7
							c-4-1.7-7.1-3.1-10.7-4.6c2.3,0.5,5,1.2,7.7,1.8c1.5,0.5,3,1,4.9,1.7c-2.8-1.5-5-2.9-7.8-4.5c1,0.3,2,0.6,2.5,0.8
							C113.8,42.3,120.5,44.7,127.2,47.1z"/>
					</g>
					<g>
						<path class="st7" d="M51,47.8c-3.1-0.9-6.7-1.9-9.9-2.8c-2.5-1.3-5.4-2.7-7.9-4c1.4,0.5,2.9,1,4.4,1.5
							C38.8,43.2,47.6,46.2,51,47.8z"/>
					</g>
					<g>
						<path class="st7" d="M38.3,44.3c0.9,0.8,1.8,1.6,3.2,2.6c-3.6-1.1-6.6-2-9.6-3c-1.7-1.2-3.4-2.5-5.2-3.7
							c0.1,0,0.1-0.1,0.2-0.1C30.7,41.6,34.5,43,38.3,44.3z"/>
					</g>
					<g>
						<path class="st7" d="M209.1,107.3c0.8,0.4,1.1,0.7,1.9,1.2c-0.3,0.2-0.7,0.4-1,0.5c-2.4-0.9-4.8-1.7-6.7-2.4
							c3.4,0.7-6.9-2.8-8.9-3.8c2.7,0.7,5.4,1.4,8.1,2.1C204.8,105.7,206.7,106.4,209.1,107.3z"/>
					</g>
					<g>
						<path class="st7" d="M83.7,69.7c2,1.1,4.1,2.1,6.1,3.2c-1.9-0.7-3.4-1.2-4.9-1.6C84,70.4,73.1,66.8,61.8,63
							c-2.5-1.2-5.6-2.6-8.1-3.8c2.5,0.8,4.9,1.6,7,2.3C68.3,64.2,76,66.9,83.7,69.7z"/>
					</g>
					<g>
						<path class="st5" d="M257.2,60.6c-1.1,0.6,18.6,8.5-2.5,1.5c3.4,1.6-9.6-2.5,8,3.9c0.9,0.4,1.8,0.7,2.2,0.9
							c-2.6-0.7-4.8-1.3-7.4-2c-3.4-1.2-6.3-2.2-9.2-3.2c-0.1,0-0.1,0.1-0.2,0.1c-1.2-0.2,6.9,2.8-1.1,0.6c-1-0.3-2.1-0.6-2.6-0.7
							c2.6,1.2,5.6,2.6,8.1,3.8c-3.6-1-9.5-3-7.5-2c-1.3-0.2-2.5-0.3-3.3-0.3c2.1,1,3.7,1.9,5.7,3c-0.3,0.2,0.2,0.7-5-1.2
							c-1.2-0.2-2.4-0.4-3.1-0.5c-2.5-0.8-5.1-1.6-7.6-2.4c2.2,1,4.3,2,6.5,3c-0.4,0.2-0.7,0.4-1.1,0.6c-3.5-1.1-6.6-2-9.6-3
							c2.6,1.2,5.2,2.4,8.3,3.7c1.1,0.7-2.9-0.6-5.4-1.3c-0.7,0-2-0.2-3.2-0.4c2.1,1.5-6-1.1-3.8,0.4c-1.3-0.1-2.6-0.3-3.5-0.3
							c-6.9-2.3-4.3-1.1-0.8,0.5c-0.6,0.4-1.3,0.7-1.9,1.1c-3.5-1.1-6.6-2-9.6-3c-13-5.1-6.5-3.4-7.8-4.4c-0.2-0.3-0.9-0.8-1.1-1.2
							c0.8,0,2.1,0.2,2.9,0.1c4.2,1.1-6.2-2.7-3.2-2.2c-1.9-0.7-3.3-1.2-4.8-1.7c1.8,0.3-15.7-6.2,3.4,0.3c1.2,0.6,2.4,1.3,4.1,2.1
							c4.7,1.3,9.8,2.9,14.5,4.2c-1-0.8-2-1.6-3-2.3c-5.4-1.8-11.3-3.8-16.7-5.6c-0.4-0.2-1.2-0.6-2.1-1c1.2,0.2,2.4,0.4,3.1,0.5
							c1.9,0.2,3.8,0.5,6.3,0.9c1.5,0.5,3,1,4.4,1.5c0.3-0.2,0.6-0.4,0.9-0.5c-1.4-0.5-2.9-1-4.3-1.6c-2.5-1.2-1.7-1.3,3.7,0.1
							c-0.8-0.9-4.8-2.6-12.1-6c3.1,0.9,6.7,1.9,9.9,2.8c4.9,1.6,7,2.3,9.5,3c0.2-0.1,0.5-0.3,0.7-0.4c1.5,0.5,3,0.9,5,1.6
							c0.3-0.2,0.7-0.4,1-0.5c4.8,1.3,10,2.8,15.2,4.2c-0.3-0.7,2.9-0.4-0.2-2.1c8.5,2.7,3.7,0.1,13.5,3
							C252.9,59.1,254.8,59.7,257.2,60.6z"/>
					</g>
					<g>
						<path class="st8" d="M198.5,55.8c-3-0.5,7.5,3.3,3.2,2.2c-0.8,0-2.1-0.2-2.9-0.1c0.2,0.3,0.9,0.8,1.1,1.2
							c1.3,1-5.2-0.6,7.8,4.4c1.3,0.6,2.6,1.2,3.9,1.8c-0.7,0-2-0.2-3.2-0.4c-0.5-0.2-1.4-0.5-1.9-0.7c-1.2-0.2-2.3-0.5-3-0.6
							c-4.9-1.6-9.4-3.1-14.4-4.7c8.5,3.6,7.5,4.2-1.6,0.9c2.2,1,4.4,1.9,6.1,2.7c0.7,0.5,1.4,1,1.6,1.3c-0.6-0.1-1.6-0.4-2.7-0.7
							c-3.9-1.3-7.8-2.7-11.7-4c-1.4-0.5-2.9-1-4.3-1.6c-4.9-1.7-9.2-3.2-14.1-4.9c-0.7-0.5-1-0.8-1.7-1.2c1.8,0.3,3.6,0.6,5.9,1.1
							c4,1.3,2,0.2,3.2,0.4c1.7,0.3,3.5,0.7,5.3,1c1,0.3,1.6,0.4,2.6,0.7c0.2-0.1,0.4-0.2,0.5-0.3c-0.6-0.5-0.8-0.9-1.4-1.4
							c-2.3-0.9-4.1-1.7-6.4-2.6c8,2.6,0.8-0.9,15,4.3c0.3-0.2,0.6-0.3,0.9-0.5c0.8,0,2.1,0.2,2.9,0.1c1.5,0.1,7.5,1.5,4.4-0.3
							C195.2,54.6,196.6,55.1,198.5,55.8z"/>
					</g>
					<g>
						<path class="st5" d="M207.4,65.4c-0.5,0.3-1.1,0.6-1.6,0.9c-3.1-0.9-6.6-2-9.6-3c2.8,1.1,6,2.3,8.8,3.4
							c-0.1,0.1-0.2,0.1-0.3,0.2c-3-1-6.4-2.1-9.3-3.1c-0.2-0.3-0.9-0.8-1.6-1.3c-1.7-0.8-3.9-1.8-6.1-2.7c9.1,3.3,10.1,2.7,1.6-0.9
							c4.9,1.6,9.4,3.1,14.4,4.7C204.9,64.2,206.1,64.8,207.4,65.4z"/>
					</g>
					<g>
						<path class="st5" d="M205.9,89.9c-0.4,0.2-25.9,1.8-26.2,2.1c-1.6-0.4-3.2-0.8-4.9-1.2c-11.6-4.5-6.3-3.1-10.2-4.9
							c0.7,0,27.1-1.2,27.9-1.2C197.1,86.5,201.7,88.3,205.9,89.9z"/>
					</g>
					<g>
						<path class="st5" d="M47.3,49.9c-0.5-0.2-1.5-0.5-2.5-0.8c-4.2-1.6-8.8-3.4-12.9-5.1c0,0,0.1,0,0.1-0.1c3.1,0.9,6.1,1.9,9.6,3
							C43.6,48,45.2,48.9,47.3,49.9z"/>
					</g>
					<g>
						<path class="st8" d="M239.4,62.3c-1.6-0.4-3.3-0.8-5.4-1.3c1.3,1-2.4,0-12.6-3.5c-1.4-0.6-2.8-1.1-4.2-1.6
							c3.6,0.6,7.7,1.4,11.4,2C232.2,59.3,235.8,60.8,239.4,62.3z"/>
					</g>
					<g>
						<path class="st8" d="M215.7,60.7c-4.7-1.3-9.8-2.9-14.5-4.2c-1.7-0.8-2.9-1.5-4.1-2.1c-0.6-0.6-0.7-0.9-1.3-1.5
							c0.1,0,0.2-0.1,0.2-0.1c5.4,1.8,11.3,3.8,16.7,5.6C213.8,59.1,214.8,59.9,215.7,60.7z"/>
					</g>
					<g>
						<path class="st8" d="M169.1,61.9c0.4,0.2,1.3,0.6,2.3,0.9c-2.6-0.7-5.2-1.5-7.8-2.2c-4.4-1.5-8.5-3.2-3.5-2
							C162.9,59.6,165.8,60.7,169.1,61.9z"/>
					</g>
					<g>
						<path class="st8" d="M195,81.4c-2.1-0.6-3.6-1-5.2-1.5c-11.3-4.3-2.5-1.7-8-3.9c3,1,6.4,2.1,9.3,3.1
							C192.3,79.9,193.4,80.6,195,81.4z"/>
					</g>
					<g>
						<path class="st3" d="M303.5,85.4c-0.3,0.2-0.6,0.3-0.8,0.5c-0.5-0.2-1.4-0.5-1.9-0.7C300.5,84.9,290.4,81.3,303.5,85.4z"/>
					</g>
					<g>
						<path class="st3" d="M303.6,85.3c0,0-0.1,0-0.1,0.1C303.5,85.4,303.6,85.4,303.6,85.3z"/>
					</g>
					<g>
						<path class="st1" d="M252.3,102.2c8.6,3.6-0.5,1.2,4.8,3.5c4.2,1.6,1.1,0.7-5.7-1.2c1.8,1.2,8.9,4.3,5.3,3.7
							c-3.6-1.1-34.3-1.8-37.2-2.4c-1.5-0.9,22.5-3.1,21.4-3.8c1.9,0.3,3.8,0.5,6.1,1c-1.4-1-2.3-1.8-3.1-2.7
							c0.3-0.1,0.5-0.3,0.8-0.4C247.2,100.6,249.8,101.4,252.3,102.2z"/>
					</g>
					<g>
						<path class="st7" d="M243.6,79.1c2.3,0.9,4.7,1.8,7,2.7c-0.3,0.2-0.6,0.4-0.9,0.5c-0.4,0.2-0.7,0.4-6.1-1
							c0.8,0-6.9-2.7-8.5-3.6c1.7,0.4,3.4,0.7,5.1,1.1C241.5,79,242.8,79.1,243.6,79.1z"/>
					</g>
					<g>
						<path class="st7" d="M90,27.7c-0.5-0.1-1.5-0.4-2.5-0.8C88.5,27.3,89.5,27.6,90,27.7z"/>
					</g>
					<g>
						<path class="st7" d="M230.7,80.2c1.3,0.6,2.5,1.2,3.8,1.9c-1.7-0.3-3.5-0.7-5.3-1C224.7,79.2,217.5,76.2,230.7,80.2z"/>
					</g>
				</g>
			</g>
		</g>
	</g>
</g>
<g>
	<g>
		<path class="st9" d="M158.4,46.4h3.4c1.2,0,2.1,0.3,2.8,0.8c0.6,0.5,1,1.2,1,2.1v0c0,0.9-0.3,1.7-1,2.2c-0.7,0.5-1.6,0.8-2.8,0.8
			h-3v3.8h-0.3V46.4z M161.7,52.1c1.1,0,1.9-0.2,2.6-0.7c0.6-0.5,0.9-1.1,0.9-2v0c0-0.8-0.3-1.5-0.9-1.9c-0.6-0.5-1.5-0.7-2.5-0.7
			h-3.1v5.3H161.7z"/>
		<path class="st9" d="M170.6,56.3c-0.5,0-1-0.1-1.5-0.3c-0.4-0.2-0.8-0.5-1.1-0.8c-0.3-0.3-0.6-0.7-0.7-1.1
			c-0.2-0.4-0.3-0.9-0.3-1.4v0c0-0.5,0.1-0.9,0.3-1.4c0.2-0.4,0.4-0.8,0.7-1.2c0.3-0.3,0.7-0.6,1.1-0.8c0.4-0.2,0.9-0.3,1.5-0.3
			c0.5,0,1,0.1,1.5,0.3c0.4,0.2,0.8,0.5,1.1,0.8c0.3,0.3,0.6,0.7,0.7,1.2c0.2,0.4,0.3,0.9,0.3,1.4v0c0,0.5-0.1,1-0.3,1.4
			c-0.2,0.4-0.4,0.8-0.7,1.2c-0.3,0.3-0.7,0.6-1.1,0.8C171.7,56.2,171.2,56.3,170.6,56.3z M170.6,56c0.5,0,0.9-0.1,1.3-0.3
			c0.4-0.2,0.7-0.4,1-0.7c0.3-0.3,0.5-0.7,0.7-1.1c0.2-0.4,0.2-0.8,0.2-1.3v0c0-0.5-0.1-0.9-0.2-1.3c-0.2-0.4-0.4-0.8-0.7-1.1
			c-0.3-0.3-0.6-0.5-1.1-0.7c-0.4-0.2-0.9-0.3-1.3-0.3c-0.5,0-0.9,0.1-1.3,0.3c-0.4,0.2-0.7,0.4-1,0.7s-0.5,0.7-0.7,1.1
			c-0.2,0.4-0.2,0.8-0.2,1.3v0c0,0.5,0.1,0.9,0.2,1.3c0.2,0.4,0.4,0.8,0.7,1.1s0.6,0.5,1,0.7C169.7,56,170.1,56,170.6,56z
			 M171.8,46.2l0.3,0.2l-1.5,1.6h-0.2L171.8,46.2z"/>
		<path class="st9" d="M183.2,56.3c-0.5,0-1-0.1-1.4-0.3c-0.4-0.2-0.8-0.4-1.1-0.8c-0.3-0.3-0.5-0.7-0.7-1.2
			c-0.2-0.4-0.3-0.9-0.3-1.4v0c0-0.5,0.1-1,0.3-1.4c0.2-0.4,0.4-0.8,0.7-1.2s0.7-0.6,1.1-0.8c0.4-0.2,0.9-0.3,1.4-0.3
			c0.4,0,0.8,0.1,1.1,0.2c0.3,0.1,0.7,0.3,0.9,0.5s0.5,0.5,0.7,0.7c0.2,0.3,0.3,0.6,0.4,0.9V46h0.3v10.1h-0.3V54
			c-0.1,0.3-0.2,0.6-0.4,0.9c-0.2,0.3-0.4,0.5-0.7,0.7s-0.6,0.4-0.9,0.5C184,56.3,183.6,56.3,183.2,56.3z M183.2,56
			c0.5,0,0.9-0.1,1.3-0.3c0.4-0.2,0.7-0.4,1-0.7c0.3-0.3,0.5-0.7,0.7-1.1c0.2-0.4,0.2-0.8,0.2-1.3v0c0-0.4-0.1-0.9-0.2-1.3
			c-0.2-0.4-0.4-0.8-0.7-1.1c-0.3-0.3-0.6-0.5-1-0.7c-0.4-0.2-0.8-0.3-1.3-0.3c-0.5,0-0.9,0.1-1.3,0.3c-0.4,0.2-0.7,0.4-1,0.7
			c-0.3,0.3-0.5,0.7-0.6,1.1c-0.2,0.4-0.2,0.8-0.2,1.3v0c0,0.5,0.1,0.9,0.2,1.3c0.2,0.4,0.4,0.8,0.6,1.1c0.3,0.3,0.6,0.5,1,0.7
			C182.3,56,182.7,56,183.2,56z"/>
		<path class="st9" d="M192.3,56.3c-0.5,0-0.9-0.1-1.3-0.3c-0.4-0.2-0.8-0.4-1.1-0.7c-0.3-0.3-0.6-0.7-0.8-1.1
			c-0.2-0.4-0.3-0.9-0.3-1.5v0c0-0.5,0.1-1,0.2-1.4c0.2-0.4,0.4-0.8,0.7-1.1c0.3-0.3,0.6-0.6,1.1-0.8c0.4-0.2,0.8-0.3,1.3-0.3
			c0.5,0,1,0.1,1.4,0.3c0.4,0.2,0.7,0.5,1,0.9c0.3,0.4,0.5,0.7,0.6,1.2c0.1,0.4,0.2,0.9,0.2,1.3v0.1h-6.2c0,0.5,0.1,0.9,0.3,1.4
			c0.2,0.4,0.4,0.7,0.7,1c0.3,0.3,0.6,0.5,1,0.7c0.4,0.2,0.8,0.2,1.2,0.2c0.5,0,1-0.1,1.5-0.4c0.5-0.3,0.8-0.6,1.1-1l0.2,0.2
			c-0.3,0.4-0.7,0.8-1.2,1.1C193.4,56.2,192.9,56.3,192.3,56.3z M195,52.5c0-0.4-0.1-0.8-0.2-1.2c-0.1-0.4-0.3-0.7-0.6-1
			c-0.2-0.3-0.5-0.5-0.9-0.7c-0.4-0.2-0.8-0.3-1.2-0.3c-0.4,0-0.8,0.1-1.2,0.2c-0.4,0.2-0.7,0.4-0.9,0.7c-0.3,0.3-0.5,0.6-0.6,1
			c-0.2,0.4-0.2,0.8-0.3,1.3H195z"/>
	</g>
	<g>
		<text transform="matrix(1 0 0 1 119.2939 76.9619)" class="st9 st10 st11">Primavera</text>
		<path class="st9" d="M229.6,66.6c0,0-3.7-10.5-0.4-7.1c1.2,1.2,1.8,2.3,1.8,2.3s4.2-6.8,4.4-2.1C235.6,63.1,229.6,66.6,229.6,66.6
			z"/>
	</g>
</g>
</svg>
